{
    "asset" : {
        "generator" : "Khronos glTF Blender I/O v1.6.16",
        "version" : "2.0"
    },
    "scene" : 0,
    "scenes" : [
        {
            "name" : "Scene",
            "nodes" : [
                0
            ]
        }
    ],
    "nodes" : [
        {
            "mesh" : 0,
            "name" : "avental mesa",
            "rotation" : [
                0.7053810954093933,
                -0.04937269166111946,
                0.04937269911170006,
                0.7053809762001038
            ],
            "scale" : [
                0.010000000707805157,
                0.010000000707805157,
                0.010000000707805157
            ],
            "translation" : [
                0.004407958593219519,
                0.12736602127552032,
                -0.006053962279111147
            ]
        }
    ],
    "materials" : [
        {
            "doubleSided" : true,
            "name" : "Leather_Lambskin_FRONT_197524",
            "pbrMetallicRoughness" : {
                "metallicFactor" : 0,
                "roughnessFactor" : 0.4636862874031067
            }
        }
    ],
    "meshes" : [
        {
            "name" : "avental mesa",
            "primitives" : [
                {
                    "attributes" : {
                        "POSITION" : 0,
                        "NORMAL" : 1,
                        "TEXCOORD_0" : 2
                    },
                    "indices" : 3,
                    "material" : 0
                }
            ]
        }
    ],
    "accessors" : [
        {
            "bufferView" : 0,
            "componentType" : 5126,
            "count" : 9108,
            "max" : [
                29.228689193725586,
                40.6158447265625,
                0.8167896270751953
            ],
            "min" : [
                -19.807214736938477,
                -47.83006286621094,
                -4.994271755218506
            ],
            "type" : "VEC3"
        },
        {
            "bufferView" : 1,
            "componentType" : 5126,
            "count" : 9108,
            "type" : "VEC3"
        },
        {
            "bufferView" : 2,
            "componentType" : 5126,
            "count" : 9108,
            "type" : "VEC2"
        },
        {
            "bufferView" : 3,
            "componentType" : 5123,
            "count" : 36282,
            "type" : "SCALAR"
        }
    ],
    "bufferViews" : [
        {
            "buffer" : 0,
            "byteLength" : 109296,
            "byteOffset" : 0
        },
        {
            "buffer" : 0,
            "byteLength" : 109296,
            "byteOffset" : 109296
        },
        {
            "buffer" : 0,
            "byteLength" : 72864,
            "byteOffset" : 218592
        },
        {
            "buffer" : 0,
            "byteLength" : 72564,
            "byteOffset" : 291456
        }
    ],
    "buffers" : [
        {
            "byteLength" : 364020,
            "uri" : "avental.bin"
        }
    ]
}
