{
    "asset" : {
        "generator" : "Khronos glTF Blender I/O v1.6.16",
        "version" : "2.0"
    },
    "scene" : 0,
    "scenes" : [
        {
            "name" : "Scene",
            "nodes" : [
                0,
                1,
                2,
                3,
                4,
                5
            ]
        }
    ],
    "nodes" : [
        {
            "mesh" : 0,
            "name" : "stitch_result_stitch all",
            "rotation" : [
                -0.41900280117988586,
                0.0999888926744461,
                -0.08390059322118759,
                0.8985541462898254
            ],
            "scale" : [
                0.02539999969303608,
                0.02539999969303608,
                0.02540000155568123
            ],
            "translation" : [
                0.01872416026890278,
                0.14819639921188354,
                0.12972721457481384
            ]
        },
        {
            "mesh" : 1,
            "name" : "stitch_result_stitch all.001",
            "rotation" : [
                -0.41900280117988586,
                0.0999888926744461,
                -0.08390059322118759,
                0.8985541462898254
            ],
            "scale" : [
                0.02539999969303608,
                0.02539999969303608,
                0.02540000155568123
            ],
            "translation" : [
                0.01872416026890278,
                0.14819639921188354,
                0.12972721457481384
            ]
        },
        {
            "mesh" : 2,
            "name" : "stitch_result_stitch all.002",
            "rotation" : [
                -0.41900280117988586,
                0.0999888926744461,
                -0.08390059322118759,
                0.8985541462898254
            ],
            "scale" : [
                0.02539999969303608,
                0.02539999969303608,
                0.02540000155568123
            ],
            "translation" : [
                0.01872416026890278,
                0.14819639921188354,
                0.12972721457481384
            ]
        },
        {
            "mesh" : 3,
            "name" : "stitch_result_stitch all.003",
            "rotation" : [
                -0.41900280117988586,
                0.0999888926744461,
                -0.08390059322118759,
                0.8985541462898254
            ],
            "scale" : [
                0.02539999969303608,
                0.02539999969303608,
                0.02540000155568123
            ],
            "translation" : [
                0.01872416026890278,
                0.14819639921188354,
                0.12972721457481384
            ]
        },
        {
            "mesh" : 4,
            "name" : "stitch_result_stitch all.004",
            "rotation" : [
                -0.41900280117988586,
                0.0999888926744461,
                -0.08390059322118759,
                0.8985541462898254
            ],
            "scale" : [
                0.02539999969303608,
                0.02539999969303608,
                0.02540000155568123
            ],
            "translation" : [
                0.01872416026890278,
                0.14819639921188354,
                0.12972721457481384
            ]
        },
        {
            "mesh" : 5,
            "name" : "stitch_result_stitch all.005",
            "rotation" : [
                -0.41900280117988586,
                0.0999888926744461,
                -0.08390059322118759,
                0.8985541462898254
            ],
            "scale" : [
                0.02539999969303608,
                0.02539999969303608,
                0.02540000155568123
            ],
            "translation" : [
                0.01872416026890278,
                0.14819639921188354,
                0.12972721457481384
            ]
        }
    ],
    "materials" : [
        {
            "doubleSided" : true,
            "name" : "Dark Gray.001",
            "pbrMetallicRoughness" : {
                "baseColorFactor" : [
                    0.20000000298023224,
                    0.20000000298023224,
                    0.20000000298023224,
                    1
                ],
                "roughnessFactor" : 0.858578622341156
            }
        },
        {
            "doubleSided" : true,
            "name" : "Medium Gold.001",
            "pbrMetallicRoughness" : {
                "baseColorFactor" : [
                    0.8823529481887817,
                    0.7607843279838562,
                    0.2823529541492462,
                    1
                ],
                "roughnessFactor" : 0.858578622341156
            }
        },
        {
            "doubleSided" : true,
            "name" : "09 - Default.001",
            "pbrMetallicRoughness" : {
                "baseColorFactor" : [
                    0.8745098114013672,
                    0.843137264251709,
                    0,
                    1
                ],
                "metallicFactor" : 0,
                "roughnessFactor" : 0
            }
        }
    ],
    "meshes" : [
        {
            "name" : "Mesh.006",
            "primitives" : [
                {
                    "attributes" : {
                        "POSITION" : 0,
                        "NORMAL" : 1,
                        "TEXCOORD_0" : 2
                    },
                    "indices" : 3,
                    "material" : 0
                }
            ]
        },
        {
            "name" : "Mesh.007",
            "primitives" : [
                {
                    "attributes" : {
                        "POSITION" : 4,
                        "NORMAL" : 5,
                        "TEXCOORD_0" : 6
                    },
                    "indices" : 7,
                    "material" : 0
                }
            ]
        },
        {
            "name" : "Mesh.008",
            "primitives" : [
                {
                    "attributes" : {
                        "POSITION" : 8,
                        "NORMAL" : 9,
                        "TEXCOORD_0" : 10
                    },
                    "indices" : 11,
                    "material" : 0
                }
            ]
        },
        {
            "name" : "Mesh.009",
            "primitives" : [
                {
                    "attributes" : {
                        "POSITION" : 12,
                        "NORMAL" : 13,
                        "TEXCOORD_0" : 14
                    },
                    "indices" : 15,
                    "material" : 0
                }
            ]
        },
        {
            "name" : "Mesh.010",
            "primitives" : [
                {
                    "attributes" : {
                        "POSITION" : 16,
                        "NORMAL" : 17,
                        "TEXCOORD_0" : 18
                    },
                    "indices" : 19,
                    "material" : 1
                }
            ]
        },
        {
            "name" : "Mesh.011",
            "primitives" : [
                {
                    "attributes" : {
                        "POSITION" : 20,
                        "NORMAL" : 21,
                        "TEXCOORD_0" : 22
                    },
                    "indices" : 23,
                    "material" : 2
                }
            ]
        }
    ],
    "accessors" : [
        {
            "bufferView" : 0,
            "componentType" : 5126,
            "count" : 2064,
            "max" : [
                2.5825448036193848,
                11.523491859436035,
                4.0371246337890625
            ],
            "min" : [
                -3.803863048553467,
                6.904484748840332,
                -4.63981294631958
            ],
            "type" : "VEC3"
        },
        {
            "bufferView" : 1,
            "componentType" : 5126,
            "count" : 2064,
            "type" : "VEC3"
        },
        {
            "bufferView" : 2,
            "componentType" : 5126,
            "count" : 2064,
            "type" : "VEC2"
        },
        {
            "bufferView" : 3,
            "componentType" : 5123,
            "count" : 2064,
            "type" : "SCALAR"
        },
        {
            "bufferView" : 4,
            "componentType" : 5126,
            "count" : 2076,
            "max" : [
                2.6227238178253174,
                11.523492813110352,
                4.0371575355529785
            ],
            "min" : [
                -3.7636826038360596,
                6.904490947723389,
                -4.6397786140441895
            ],
            "type" : "VEC3"
        },
        {
            "bufferView" : 5,
            "componentType" : 5126,
            "count" : 2076,
            "type" : "VEC3"
        },
        {
            "bufferView" : 6,
            "componentType" : 5126,
            "count" : 2076,
            "type" : "VEC2"
        },
        {
            "bufferView" : 7,
            "componentType" : 5123,
            "count" : 2076,
            "type" : "SCALAR"
        },
        {
            "bufferView" : 8,
            "componentType" : 5126,
            "count" : 1440,
            "max" : [
                3.354987382888794,
                8.565882682800293,
                4.919173717498779
            ],
            "min" : [
                -4.535639762878418,
                5.994073867797852,
                -5.405276298522949
            ],
            "type" : "VEC3"
        },
        {
            "bufferView" : 9,
            "componentType" : 5126,
            "count" : 1440,
            "type" : "VEC3"
        },
        {
            "bufferView" : 10,
            "componentType" : 5126,
            "count" : 1440,
            "type" : "VEC2"
        },
        {
            "bufferView" : 11,
            "componentType" : 5123,
            "count" : 1440,
            "type" : "SCALAR"
        },
        {
            "bufferView" : 12,
            "componentType" : 5126,
            "count" : 1932,
            "max" : [
                3.611438751220703,
                11.50259017944336,
                0.17169509828090668
            ],
            "min" : [
                -4.792541027069092,
                7.581969738006592,
                -1.4587006568908691
            ],
            "type" : "VEC3"
        },
        {
            "bufferView" : 13,
            "componentType" : 5126,
            "count" : 1932,
            "type" : "VEC3"
        },
        {
            "bufferView" : 14,
            "componentType" : 5126,
            "count" : 1932,
            "type" : "VEC2"
        },
        {
            "bufferView" : 15,
            "componentType" : 5123,
            "count" : 1932,
            "type" : "SCALAR"
        },
        {
            "bufferView" : 16,
            "componentType" : 5126,
            "count" : 18,
            "max" : [
                0.2801564335823059,
                5.7882981300354,
                -4.0644073486328125
            ],
            "min" : [
                -1.4612582921981812,
                5.6987199783325195,
                -4.9711127281188965
            ],
            "type" : "VEC3"
        },
        {
            "bufferView" : 17,
            "componentType" : 5126,
            "count" : 18,
            "type" : "VEC3"
        },
        {
            "bufferView" : 18,
            "componentType" : 5126,
            "count" : 18,
            "type" : "VEC2"
        },
        {
            "bufferView" : 19,
            "componentType" : 5123,
            "count" : 18,
            "type" : "SCALAR"
        },
        {
            "bufferView" : 20,
            "componentType" : 5126,
            "count" : 85665,
            "max" : [
                4.368216037750244,
                11.902092933654785,
                7.9824299812316895
            ],
            "min" : [
                -5.5493388175964355,
                5.450793266296387,
                -6.313471794128418
            ],
            "type" : "VEC3"
        },
        {
            "bufferView" : 21,
            "componentType" : 5126,
            "count" : 85665,
            "type" : "VEC3"
        },
        {
            "bufferView" : 22,
            "componentType" : 5126,
            "count" : 85665,
            "type" : "VEC2"
        },
        {
            "bufferView" : 23,
            "componentType" : 5125,
            "count" : 85665,
            "type" : "SCALAR"
        }
    ],
    "bufferViews" : [
        {
            "buffer" : 0,
            "byteLength" : 24768,
            "byteOffset" : 0
        },
        {
            "buffer" : 0,
            "byteLength" : 24768,
            "byteOffset" : 24768
        },
        {
            "buffer" : 0,
            "byteLength" : 16512,
            "byteOffset" : 49536
        },
        {
            "buffer" : 0,
            "byteLength" : 4128,
            "byteOffset" : 66048
        },
        {
            "buffer" : 0,
            "byteLength" : 24912,
            "byteOffset" : 70176
        },
        {
            "buffer" : 0,
            "byteLength" : 24912,
            "byteOffset" : 95088
        },
        {
            "buffer" : 0,
            "byteLength" : 16608,
            "byteOffset" : 120000
        },
        {
            "buffer" : 0,
            "byteLength" : 4152,
            "byteOffset" : 136608
        },
        {
            "buffer" : 0,
            "byteLength" : 17280,
            "byteOffset" : 140760
        },
        {
            "buffer" : 0,
            "byteLength" : 17280,
            "byteOffset" : 158040
        },
        {
            "buffer" : 0,
            "byteLength" : 11520,
            "byteOffset" : 175320
        },
        {
            "buffer" : 0,
            "byteLength" : 2880,
            "byteOffset" : 186840
        },
        {
            "buffer" : 0,
            "byteLength" : 23184,
            "byteOffset" : 189720
        },
        {
            "buffer" : 0,
            "byteLength" : 23184,
            "byteOffset" : 212904
        },
        {
            "buffer" : 0,
            "byteLength" : 15456,
            "byteOffset" : 236088
        },
        {
            "buffer" : 0,
            "byteLength" : 3864,
            "byteOffset" : 251544
        },
        {
            "buffer" : 0,
            "byteLength" : 216,
            "byteOffset" : 255408
        },
        {
            "buffer" : 0,
            "byteLength" : 216,
            "byteOffset" : 255624
        },
        {
            "buffer" : 0,
            "byteLength" : 144,
            "byteOffset" : 255840
        },
        {
            "buffer" : 0,
            "byteLength" : 36,
            "byteOffset" : 255984
        },
        {
            "buffer" : 0,
            "byteLength" : 1027980,
            "byteOffset" : 256020
        },
        {
            "buffer" : 0,
            "byteLength" : 1027980,
            "byteOffset" : 1284000
        },
        {
            "buffer" : 0,
            "byteLength" : 685320,
            "byteOffset" : 2311980
        },
        {
            "buffer" : 0,
            "byteLength" : 342660,
            "byteOffset" : 2997300
        }
    ],
    "buffers" : [
        {
            "byteLength" : 3339960,
            "uri" : "capacete.bin"
        }
    ]
}
