{
    "asset": {
        "version": "2.0",
        "generator": "Open Asset Import Library (assimp v5.0.5eb040c7)"
    },
    "accessors": [
        {
            "bufferView": 0,
            "byteOffset": 0,
            "componentType": 5126,
            "count": 96,
            "type": "VEC3",
            "max": [
                374.47308349609377,
                9.09332275390625,
                -100.13581848144531
            ],
            "min": [
                356.28643798828127,
                -9.09332275390625,
                -131.23670959472657
            ]
        },
        {
            "bufferView": 1,
            "byteOffset": 0,
            "componentType": 5125,
            "count": 288,
            "type": "SCALAR",
            "max": [
                95
            ],
            "min": [
                0
            ]
        },
        {
            "bufferView": 2,
            "byteOffset": 0,
            "componentType": 5126,
            "count": 288,
            "type": "VEC3",
            "max": [
                379.6446533203125,
                14.264883041381836,
                -88.77120208740235
            ],
            "min": [
                351.1148986816406,
                -14.264883041381836,
                -149.9360809326172
            ]
        },
        {
            "bufferView": 3,
            "byteOffset": 0,
            "componentType": 5125,
            "count": 1650,
            "type": "SCALAR",
            "max": [
                287
            ],
            "min": [
                0
            ]
        },
        {
            "bufferView": 4,
            "byteOffset": 0,
            "componentType": 5126,
            "count": 240,
            "type": "VEC3",
            "max": [
                379.6446533203125,
                14.264883041381836,
                -88.77120208740235
            ],
            "min": [
                351.1148986816406,
                -14.264883041381836,
                -149.9360809326172
            ]
        },
        {
            "bufferView": 5,
            "byteOffset": 0,
            "componentType": 5125,
            "count": 1074,
            "type": "SCALAR",
            "max": [
                239
            ],
            "min": [
                0
            ]
        },
        {
            "bufferView": 6,
            "byteOffset": 0,
            "componentType": 5126,
            "count": 96,
            "type": "VEC3",
            "max": [
                373.4665222167969,
                8.086732864379883,
                -108.11638641357422
            ],
            "min": [
                357.29302978515627,
                -8.086732864379883,
                -131.23670959472657
            ]
        },
        {
            "bufferView": 7,
            "byteOffset": 0,
            "componentType": 5125,
            "count": 288,
            "type": "SCALAR",
            "max": [
                95
            ],
            "min": [
                0
            ]
        }
    ],
    "buffers": [
        {
            "byteLength": 21840,
            "uri": "result.bin"
        }
    ],
    "bufferViews": [
        {
            "buffer": 0,
            "byteOffset": 0,
            "byteLength": 1152,
            "target": 34962
        },
        {
            "buffer": 0,
            "byteOffset": 1152,
            "byteLength": 1152,
            "target": 34963
        },
        {
            "buffer": 0,
            "byteOffset": 2304,
            "byteLength": 3456,
            "target": 34962
        },
        {
            "buffer": 0,
            "byteOffset": 5760,
            "byteLength": 6600,
            "target": 34963
        },
        {
            "buffer": 0,
            "byteOffset": 12360,
            "byteLength": 2880,
            "target": 34962
        },
        {
            "buffer": 0,
            "byteOffset": 15240,
            "byteLength": 4296,
            "target": 34963
        },
        {
            "buffer": 0,
            "byteOffset": 19536,
            "byteLength": 1152,
            "target": 34962
        },
        {
            "buffer": 0,
            "byteOffset": 20688,
            "byteLength": 1152,
            "target": 34963
        }
    ],
    "materials": [
        {
            "name": "Color_M00",
            "pbrMetallicRoughness": {
                "metallicFactor": 0.0,
                "roughnessFactor": 0.953330934047699
            }
        },
        {
            "name": "BackColor",
            "pbrMetallicRoughness": {
                "baseColorFactor": [
                    0.6431372761726379,
                    0.6980392336845398,
                    0.7333333492279053,
                    1.0
                ],
                "metallicFactor": 0.0,
                "roughnessFactor": 0.953330934047699
            }
        },
        {
            "name": "Color_C06",
            "pbrMetallicRoughness": {
                "baseColorFactor": [
                    0.800000011920929,
                    0.4000000059604645,
                    0.0,
                    1.0
                ],
                "metallicFactor": 0.0,
                "roughnessFactor": 0.953330934047699
            }
        },
        {
            "name": "FrontColor",
            "pbrMetallicRoughness": {
                "metallicFactor": 0.0,
                "roughnessFactor": 0.953330934047699
            }
        }
    ],
    "meshes": [
        {
            "name": "Mesh1",
            "primitives": [
                {
                    "mode": 4,
                    "material": 0,
                    "indices": 1,
                    "attributes": {
                        "POSITION": 0
                    }
                },
                {
                    "mode": 4,
                    "material": 1,
                    "indices": 3,
                    "attributes": {
                        "POSITION": 2
                    }
                },
                {
                    "mode": 4,
                    "material": 2,
                    "indices": 5,
                    "attributes": {
                        "POSITION": 4
                    }
                },
                {
                    "mode": 4,
                    "material": 3,
                    "indices": 7,
                    "attributes": {
                        "POSITION": 6
                    }
                }
            ]
        }
    ],
    "nodes": [
        {
            "name": "RootNode",
            "children": [
                1
            ]
        },
        {
            "name": "Model",
            "children": [
                2
            ]
        },
        {
            "name": "Mesh1",
            "mesh": 0
        }
    ],
    "scenes": [
        {
            "nodes": [
                0
            ]
        }
    ],
    "scene": 0
}