{
    "asset" : {
        "generator" : "Khronos glTF Blender I/O v1.6.16",
        "version" : "2.0"
    },
    "scene" : 0,
    "scenes" : [
        {
            "name" : "Scene",
            "nodes" : [
                0
            ]
        }
    ],
    "nodes" : [
        {
            "mesh" : 0,
            "name" : "Mesh003",
            "rotation" : [
                -0.7071066498756409,
                0,
                0,
                0.70710688829422
            ],
            "scale" : [
                -0.02539999969303608,
                -0.02539999969303608,
                -0.02539999969303608
            ],
            "translation" : [
                0.050746504217386246,
                -0.023697633296251297,
                0.10563124716281891
            ]
        }
    ],
    "materials" : [
        {
            "doubleSided" : true,
            "name" : "FrontColor.001",
            "pbrMetallicRoughness" : {
                "metallicFactor" : 0,
                "roughnessFactor" : 0.8964735269546509
            }
        },
        {
            "doubleSided" : true,
            "name" : "_LightGray_.001",
            "pbrMetallicRoughness" : {
                "baseColorFactor" : [
                    0.6627451181411743,
                    0.6627451181411743,
                    0.6627451181411743,
                    1
                ],
                "metallicFactor" : 0,
                "roughnessFactor" : 0.8964735269546509
            }
        },
        {
            "doubleSided" : true,
            "name" : "_27.001",
            "pbrMetallicRoughness" : {
                "metallicFactor" : 0,
                "roughnessFactor" : 0.696856677532196
            }
        },
        {
            "doubleSided" : true,
            "name" : "Color_002.001",
            "pbrMetallicRoughness" : {
                "baseColorFactor" : [
                    0.7764706015586853,
                    0.7764706015586853,
                    0.7764706015586853,
                    1
                ],
                "metallicFactor" : 0,
                "roughnessFactor" : 0.5527864098548889
            }
        },
        {
            "doubleSided" : true,
            "name" : "_13.001",
            "pbrMetallicRoughness" : {
                "baseColorFactor" : [
                    0.5882353186607361,
                    0.5607843399047852,
                    0.48627451062202454,
                    1
                ],
                "metallicFactor" : 0,
                "roughnessFactor" : 0.5527864098548889
            }
        },
        {
            "doubleSided" : true,
            "name" : "BackColor.001",
            "pbrMetallicRoughness" : {
                "baseColorFactor" : [
                    0.6352941393852234,
                    0.7176470756530762,
                    0.7764706015586853,
                    1
                ],
                "metallicFactor" : 0,
                "roughnessFactor" : 0.5527864098548889
            }
        },
        {
            "doubleSided" : true,
            "name" : "_Black_.001",
            "pbrMetallicRoughness" : {
                "baseColorFactor" : [
                    0,
                    0,
                    0,
                    1
                ],
                "metallicFactor" : 0,
                "roughnessFactor" : 0.5527864098548889
            }
        }
    ],
    "meshes" : [
        {
            "name" : "Mesh.001",
            "primitives" : [
                {
                    "attributes" : {
                        "POSITION" : 0,
                        "NORMAL" : 1,
                        "TEXCOORD_0" : 2
                    },
                    "indices" : 3,
                    "material" : 0
                },
                {
                    "attributes" : {
                        "POSITION" : 4,
                        "NORMAL" : 5,
                        "TEXCOORD_0" : 6
                    },
                    "indices" : 7,
                    "material" : 1
                },
                {
                    "attributes" : {
                        "POSITION" : 8,
                        "NORMAL" : 9,
                        "TEXCOORD_0" : 10
                    },
                    "indices" : 11,
                    "material" : 2
                },
                {
                    "attributes" : {
                        "POSITION" : 12,
                        "NORMAL" : 13,
                        "TEXCOORD_0" : 14
                    },
                    "indices" : 15,
                    "material" : 3
                },
                {
                    "attributes" : {
                        "POSITION" : 16,
                        "NORMAL" : 17,
                        "TEXCOORD_0" : 18
                    },
                    "indices" : 19,
                    "material" : 4
                },
                {
                    "attributes" : {
                        "POSITION" : 20,
                        "NORMAL" : 21,
                        "TEXCOORD_0" : 22
                    },
                    "indices" : 23,
                    "material" : 5
                },
                {
                    "attributes" : {
                        "POSITION" : 24,
                        "NORMAL" : 25,
                        "TEXCOORD_0" : 26
                    },
                    "indices" : 27,
                    "material" : 6
                }
            ]
        }
    ],
    "accessors" : [
        {
            "bufferView" : 0,
            "componentType" : 5126,
            "count" : 5682,
            "max" : [
                2.1742358207702637,
                -4.185924053192139,
                -1.0533074140548706
            ],
            "min" : [
                1.8215519189834595,
                -4.268359661102295,
                -1.1805135011672974
            ],
            "type" : "VEC3"
        },
        {
            "bufferView" : 1,
            "componentType" : 5126,
            "count" : 5682,
            "type" : "VEC3"
        },
        {
            "bufferView" : 2,
            "componentType" : 5126,
            "count" : 5682,
            "type" : "VEC2"
        },
        {
            "bufferView" : 3,
            "componentType" : 5123,
            "count" : 5682,
            "type" : "SCALAR"
        },
        {
            "bufferView" : 4,
            "componentType" : 5126,
            "count" : 114,
            "max" : [
                2.143258571624756,
                -4.096073627471924,
                -1.0153601169586182
            ],
            "min" : [
                1.8525294065475464,
                -4.198653221130371,
                -1.1106923818588257
            ],
            "type" : "VEC3"
        },
        {
            "bufferView" : 5,
            "componentType" : 5126,
            "count" : 114,
            "type" : "VEC3"
        },
        {
            "bufferView" : 6,
            "componentType" : 5126,
            "count" : 114,
            "type" : "VEC2"
        },
        {
            "bufferView" : 7,
            "componentType" : 5123,
            "count" : 114,
            "type" : "SCALAR"
        },
        {
            "bufferView" : 8,
            "componentType" : 5126,
            "count" : 1218,
            "max" : [
                2.1729440689086914,
                -4.070766448974609,
                -0.9724019169807434
            ],
            "min" : [
                1.8228439092636108,
                -4.267009258270264,
                -1.179161548614502
            ],
            "type" : "VEC3"
        },
        {
            "bufferView" : 9,
            "componentType" : 5126,
            "count" : 1218,
            "type" : "VEC3"
        },
        {
            "bufferView" : 10,
            "componentType" : 5126,
            "count" : 1218,
            "type" : "VEC2"
        },
        {
            "bufferView" : 11,
            "componentType" : 5123,
            "count" : 1218,
            "type" : "SCALAR"
        },
        {
            "bufferView" : 12,
            "componentType" : 5126,
            "count" : 4770,
            "max" : [
                2.144613742828369,
                -4.049060821533203,
                -0.9589894413948059
            ],
            "min" : [
                1.851173996925354,
                -4.251031398773193,
                -1.1325567960739136
            ],
            "type" : "VEC3"
        },
        {
            "bufferView" : 13,
            "componentType" : 5126,
            "count" : 4770,
            "type" : "VEC3"
        },
        {
            "bufferView" : 14,
            "componentType" : 5126,
            "count" : 4770,
            "type" : "VEC2"
        },
        {
            "bufferView" : 15,
            "componentType" : 5123,
            "count" : 4770,
            "type" : "SCALAR"
        },
        {
            "bufferView" : 16,
            "componentType" : 5126,
            "count" : 54,
            "max" : [
                2.159501552581787,
                -4.150129795074463,
                -1.0524446964263916
            ],
            "min" : [
                1.8362863063812256,
                -4.213881969451904,
                -1.1685138940811157
            ],
            "type" : "VEC3"
        },
        {
            "bufferView" : 17,
            "componentType" : 5126,
            "count" : 54,
            "type" : "VEC3"
        },
        {
            "bufferView" : 18,
            "componentType" : 5126,
            "count" : 54,
            "type" : "VEC2"
        },
        {
            "bufferView" : 19,
            "componentType" : 5123,
            "count" : 54,
            "type" : "SCALAR"
        },
        {
            "bufferView" : 20,
            "componentType" : 5126,
            "count" : 6,
            "max" : [
                2.102942943572998,
                -4.2047224044799805,
                -1.0591638088226318
            ],
            "min" : [
                1.892844796180725,
                -4.2094526290893555,
                -1.0630742311477661
            ],
            "type" : "VEC3"
        },
        {
            "bufferView" : 21,
            "componentType" : 5126,
            "count" : 6,
            "type" : "VEC3"
        },
        {
            "bufferView" : 22,
            "componentType" : 5126,
            "count" : 6,
            "type" : "VEC2"
        },
        {
            "bufferView" : 23,
            "componentType" : 5123,
            "count" : 6,
            "type" : "SCALAR"
        },
        {
            "bufferView" : 24,
            "componentType" : 5126,
            "count" : 5664,
            "max" : [
                2.1742358207702637,
                -4.185924053192139,
                -1.0740296840667725
            ],
            "min" : [
                1.8215519189834595,
                -4.268359661102295,
                -1.1805135011672974
            ],
            "type" : "VEC3"
        },
        {
            "bufferView" : 25,
            "componentType" : 5126,
            "count" : 5664,
            "type" : "VEC3"
        },
        {
            "bufferView" : 26,
            "componentType" : 5126,
            "count" : 5664,
            "type" : "VEC2"
        },
        {
            "bufferView" : 27,
            "componentType" : 5123,
            "count" : 5664,
            "type" : "SCALAR"
        }
    ],
    "bufferViews" : [
        {
            "buffer" : 0,
            "byteLength" : 68184,
            "byteOffset" : 0
        },
        {
            "buffer" : 0,
            "byteLength" : 68184,
            "byteOffset" : 68184
        },
        {
            "buffer" : 0,
            "byteLength" : 45456,
            "byteOffset" : 136368
        },
        {
            "buffer" : 0,
            "byteLength" : 11364,
            "byteOffset" : 181824
        },
        {
            "buffer" : 0,
            "byteLength" : 1368,
            "byteOffset" : 193188
        },
        {
            "buffer" : 0,
            "byteLength" : 1368,
            "byteOffset" : 194556
        },
        {
            "buffer" : 0,
            "byteLength" : 912,
            "byteOffset" : 195924
        },
        {
            "buffer" : 0,
            "byteLength" : 228,
            "byteOffset" : 196836
        },
        {
            "buffer" : 0,
            "byteLength" : 14616,
            "byteOffset" : 197064
        },
        {
            "buffer" : 0,
            "byteLength" : 14616,
            "byteOffset" : 211680
        },
        {
            "buffer" : 0,
            "byteLength" : 9744,
            "byteOffset" : 226296
        },
        {
            "buffer" : 0,
            "byteLength" : 2436,
            "byteOffset" : 236040
        },
        {
            "buffer" : 0,
            "byteLength" : 57240,
            "byteOffset" : 238476
        },
        {
            "buffer" : 0,
            "byteLength" : 57240,
            "byteOffset" : 295716
        },
        {
            "buffer" : 0,
            "byteLength" : 38160,
            "byteOffset" : 352956
        },
        {
            "buffer" : 0,
            "byteLength" : 9540,
            "byteOffset" : 391116
        },
        {
            "buffer" : 0,
            "byteLength" : 648,
            "byteOffset" : 400656
        },
        {
            "buffer" : 0,
            "byteLength" : 648,
            "byteOffset" : 401304
        },
        {
            "buffer" : 0,
            "byteLength" : 432,
            "byteOffset" : 401952
        },
        {
            "buffer" : 0,
            "byteLength" : 108,
            "byteOffset" : 402384
        },
        {
            "buffer" : 0,
            "byteLength" : 72,
            "byteOffset" : 402492
        },
        {
            "buffer" : 0,
            "byteLength" : 72,
            "byteOffset" : 402564
        },
        {
            "buffer" : 0,
            "byteLength" : 48,
            "byteOffset" : 402636
        },
        {
            "buffer" : 0,
            "byteLength" : 12,
            "byteOffset" : 402684
        },
        {
            "buffer" : 0,
            "byteLength" : 67968,
            "byteOffset" : 402696
        },
        {
            "buffer" : 0,
            "byteLength" : 67968,
            "byteOffset" : 470664
        },
        {
            "buffer" : 0,
            "byteLength" : 45312,
            "byteOffset" : 538632
        },
        {
            "buffer" : 0,
            "byteLength" : 11328,
            "byteOffset" : 583944
        }
    ],
    "buffers" : [
        {
            "byteLength" : 595272,
            "uri" : "luva_pano.bin"
        }
    ]
}
