{
    "asset" : {
        "generator" : "Khronos glTF Blender I/O v1.6.16",
        "version" : "2.0"
    },
    "scene" : 0,
    "scenes" : [
        {
            "name" : "Scene",
            "nodes" : [
                0,
                1
            ]
        }
    ],
    "nodes" : [
        {
            "mesh" : 0,
            "name" : "Glove_rubber_low"
        },
        {
            "mesh" : 1,
            "name" : "Glove_rubber_low.001"
        }
    ],
    "materials" : [
        {
            "doubleSided" : true,
            "name" : "Glove_rubber",
            "pbrMetallicRoughness" : {
                "baseColorFactor" : [
                    1,
                    0.7299538850784302,
                    0.021136879920959473,
                    1
                ],
                "metallicFactor" : 0,
                "roughnessFactor" : 0.5
            }
        }
    ],
    "meshes" : [
        {
            "name" : "Plane.008",
            "primitives" : [
                {
                    "attributes" : {
                        "POSITION" : 0,
                        "NORMAL" : 1,
                        "TEXCOORD_0" : 2
                    },
                    "indices" : 3,
                    "material" : 0
                }
            ]
        },
        {
            "name" : "Plane.004",
            "primitives" : [
                {
                    "attributes" : {
                        "POSITION" : 4,
                        "NORMAL" : 5,
                        "TEXCOORD_0" : 6
                    },
                    "indices" : 7,
                    "material" : 0
                }
            ]
        }
    ],
    "accessors" : [
        {
            "bufferView" : 0,
            "componentType" : 5126,
            "count" : 11279,
            "max" : [
                0.04097761586308479,
                0.1856529265642166,
                0.07915285229682922
            ],
            "min" : [
                -0.0644078478217125,
                0.09549814462661743,
                -0.16951234638690948
            ],
            "type" : "VEC3"
        },
        {
            "bufferView" : 1,
            "componentType" : 5126,
            "count" : 11279,
            "type" : "VEC3"
        },
        {
            "bufferView" : 2,
            "componentType" : 5126,
            "count" : 11279,
            "type" : "VEC2"
        },
        {
            "bufferView" : 3,
            "componentType" : 5123,
            "count" : 56160,
            "type" : "SCALAR"
        },
        {
            "bufferView" : 4,
            "componentType" : 5126,
            "count" : 11279,
            "max" : [
                0.07559382915496826,
                0.17639225721359253,
                0.1897972822189331
            ],
            "min" : [
                -0.0034134313464164734,
                0.08125272393226624,
                -0.05920122191309929
            ],
            "type" : "VEC3"
        },
        {
            "bufferView" : 5,
            "componentType" : 5126,
            "count" : 11279,
            "type" : "VEC3"
        },
        {
            "bufferView" : 6,
            "componentType" : 5126,
            "count" : 11279,
            "type" : "VEC2"
        },
        {
            "bufferView" : 7,
            "componentType" : 5123,
            "count" : 56160,
            "type" : "SCALAR"
        }
    ],
    "bufferViews" : [
        {
            "buffer" : 0,
            "byteLength" : 135348,
            "byteOffset" : 0
        },
        {
            "buffer" : 0,
            "byteLength" : 135348,
            "byteOffset" : 135348
        },
        {
            "buffer" : 0,
            "byteLength" : 90232,
            "byteOffset" : 270696
        },
        {
            "buffer" : 0,
            "byteLength" : 112320,
            "byteOffset" : 360928
        },
        {
            "buffer" : 0,
            "byteLength" : 135348,
            "byteOffset" : 473248
        },
        {
            "buffer" : 0,
            "byteLength" : 135348,
            "byteOffset" : 608596
        },
        {
            "buffer" : 0,
            "byteLength" : 90232,
            "byteOffset" : 743944
        },
        {
            "buffer" : 0,
            "byteLength" : 112320,
            "byteOffset" : 834176
        }
    ],
    "buffers" : [
        {
            "byteLength" : 946496,
            "uri" : "luva_borracha.bin"
        }
    ]
}
