{
    "asset" : {
        "generator" : "Khronos glTF Blender I/O v1.5.17",
        "version" : "2.0"
    },
    "scene" : 0,
    "scenes" : [
        {
            "name" : "Scene",
            "nodes" : [
                0
            ]
        }
    ],
    "nodes" : [
        {
            "mesh" : 0,
            "name" : "Glove_rubber_low"
        }
    ],
    "materials" : [
        {
            "doubleSided" : true,
            "name" : "Glove_rubber",
            "pbrMetallicRoughness" : {
                "baseColorFactor" : [
                    0.800000011920929,
                    0.800000011920929,
                    0.800000011920929,
                    1
                ],
                "metallicFactor" : 0,
                "roughnessFactor" : 0.5
            }
        }
    ],
    "meshes" : [
        {
            "name" : "Plane.008",
            "primitives" : [
                {
                    "attributes" : {
                        "POSITION" : 0,
                        "NORMAL" : 1,
                        "TEXCOORD_0" : 2
                    },
                    "indices" : 3,
                    "material" : 0
                }
            ]
        }
    ],
    "accessors" : [
        {
            "bufferView" : 0,
            "componentType" : 5126,
            "count" : 22558,
            "max" : [
                0.06485709547996521,
                0.050142109394073486,
                0.16187965869903564
            ],
            "min" : [
                -0.07514458149671555,
                -0.05425809323787689,
                -0.19742998480796814
            ],
            "type" : "VEC3"
        },
        {
            "bufferView" : 1,
            "componentType" : 5126,
            "count" : 22558,
            "type" : "VEC3"
        },
        {
            "bufferView" : 2,
            "componentType" : 5126,
            "count" : 22558,
            "type" : "VEC2"
        },
        {
            "bufferView" : 3,
            "componentType" : 5123,
            "count" : 112320,
            "type" : "SCALAR"
        }
    ],
    "bufferViews" : [
        {
            "buffer" : 0,
            "byteLength" : 270696,
            "byteOffset" : 0
        },
        {
            "buffer" : 0,
            "byteLength" : 270696,
            "byteOffset" : 270696
        },
        {
            "buffer" : 0,
            "byteLength" : 180464,
            "byteOffset" : 541392
        },
        {
            "buffer" : 0,
            "byteLength" : 224640,
            "byteOffset" : 721856
        }
    ],
    "buffers" : [
        {
            "byteLength" : 946496,
            "uri" : "luvas de boracha.bin"
        }
    ]
}
