{
    "asset" : {
        "generator" : "Khronos glTF Blender I/O v1.6.16",
        "version" : "2.0"
    },
    "scene" : 0,
    "scenes" : [
        {
            "name" : "Scene",
            "nodes" : [
                0
            ]
        }
    ],
    "nodes" : [
        {
            "mesh" : 0,
            "name" : "Mesh003",
            "rotation" : [
                -0.999194324016571,
                0,
                0,
                -0.04013437032699585
            ],
            "scale" : [
                -9.491175651550293,
                -9.491175651550293,
                -9.491175651550293
            ],
            "translation" : [
                0,
                1.9425206184387207,
                -0.2573503255844116
            ]
        }
    ],
    "materials" : [
        {
            "doubleSided" : true,
            "name" : "FrontColor",
            "pbrMetallicRoughness" : {
                "roughnessFactor" : 0.5527864098548889
            }
        },
        {
            "doubleSided" : true,
            "name" : "_LightGray_",
            "pbrMetallicRoughness" : {
                "baseColorFactor" : [
                    0.6627451181411743,
                    0.6627451181411743,
                    0.6627451181411743,
                    1
                ],
                "roughnessFactor" : 0.5527864098548889
            }
        },
        {
            "doubleSided" : true,
            "name" : "_27",
            "pbrMetallicRoughness" : {
                "roughnessFactor" : 0.5527864098548889
            }
        },
        {
            "doubleSided" : true,
            "name" : "Color_002",
            "pbrMetallicRoughness" : {
                "baseColorFactor" : [
                    0.7764706015586853,
                    0.7764706015586853,
                    0.7764706015586853,
                    1
                ],
                "roughnessFactor" : 0.5527864098548889
            }
        },
        {
            "doubleSided" : true,
            "name" : "_13",
            "pbrMetallicRoughness" : {
                "baseColorFactor" : [
                    0.5882353186607361,
                    0.5607843399047852,
                    0.48627451062202454,
                    1
                ],
                "roughnessFactor" : 0.5527864098548889
            }
        },
        {
            "doubleSided" : true,
            "name" : "BackColor",
            "pbrMetallicRoughness" : {
                "baseColorFactor" : [
                    0.6352941393852234,
                    0.7176470756530762,
                    0.7764706015586853,
                    1
                ],
                "roughnessFactor" : 0.5527864098548889
            }
        },
        {
            "doubleSided" : true,
            "name" : "_Black_",
            "pbrMetallicRoughness" : {
                "baseColorFactor" : [
                    0,
                    0,
                    0,
                    1
                ],
                "roughnessFactor" : 0.5527864098548889
            }
        }
    ],
    "meshes" : [
        {
            "name" : "Mesh.012",
            "primitives" : [
                {
                    "attributes" : {
                        "POSITION" : 0,
                        "NORMAL" : 1,
                        "TEXCOORD_0" : 2
                    },
                    "indices" : 3,
                    "material" : 0
                },
                {
                    "attributes" : {
                        "POSITION" : 4,
                        "NORMAL" : 5,
                        "TEXCOORD_0" : 6
                    },
                    "indices" : 7,
                    "material" : 1
                },
                {
                    "attributes" : {
                        "POSITION" : 8,
                        "NORMAL" : 9,
                        "TEXCOORD_0" : 10
                    },
                    "indices" : 11,
                    "material" : 2
                },
                {
                    "attributes" : {
                        "POSITION" : 12,
                        "NORMAL" : 13,
                        "TEXCOORD_0" : 14
                    },
                    "indices" : 15,
                    "material" : 3
                },
                {
                    "attributes" : {
                        "POSITION" : 16,
                        "NORMAL" : 17,
                        "TEXCOORD_0" : 18
                    },
                    "indices" : 19,
                    "material" : 4
                },
                {
                    "attributes" : {
                        "POSITION" : 20,
                        "NORMAL" : 21,
                        "TEXCOORD_0" : 22
                    },
                    "indices" : 23,
                    "material" : 5
                },
                {
                    "attributes" : {
                        "POSITION" : 24,
                        "NORMAL" : 25,
                        "TEXCOORD_0" : 26
                    },
                    "indices" : 27,
                    "material" : 6
                }
            ]
        }
    ],
    "accessors" : [
        {
            "bufferView" : 0,
            "componentType" : 5126,
            "count" : 5682,
            "max" : [
                0.17633485794067383,
                0.02336883544921875,
                0.0556333065032959
            ],
            "min" : [
                -0.17634904384613037,
                -0.0590667724609375,
                -0.07157278060913086
            ],
            "type" : "VEC3"
        },
        {
            "bufferView" : 1,
            "componentType" : 5126,
            "count" : 5682,
            "type" : "VEC3"
        },
        {
            "bufferView" : 2,
            "componentType" : 5126,
            "count" : 5682,
            "type" : "VEC2"
        },
        {
            "bufferView" : 3,
            "componentType" : 5123,
            "count" : 5682,
            "type" : "SCALAR"
        },
        {
            "bufferView" : 4,
            "componentType" : 5126,
            "count" : 114,
            "max" : [
                0.14535760879516602,
                0.1132192611694336,
                0.09358060359954834
            ],
            "min" : [
                -0.14537155628204346,
                0.010639667510986328,
                -0.0017516613006591797
            ],
            "type" : "VEC3"
        },
        {
            "bufferView" : 5,
            "componentType" : 5126,
            "count" : 114,
            "type" : "VEC3"
        },
        {
            "bufferView" : 6,
            "componentType" : 5126,
            "count" : 114,
            "type" : "VEC2"
        },
        {
            "bufferView" : 7,
            "componentType" : 5123,
            "count" : 114,
            "type" : "SCALAR"
        },
        {
            "bufferView" : 8,
            "componentType" : 5126,
            "count" : 1218,
            "max" : [
                0.17504310607910156,
                0.13852643966674805,
                0.1365388035774231
            ],
            "min" : [
                -0.175057053565979,
                -0.05771636962890625,
                -0.07022082805633545
            ],
            "type" : "VEC3"
        },
        {
            "bufferView" : 9,
            "componentType" : 5126,
            "count" : 1218,
            "type" : "VEC3"
        },
        {
            "bufferView" : 10,
            "componentType" : 5126,
            "count" : 1218,
            "type" : "VEC2"
        },
        {
            "bufferView" : 11,
            "componentType" : 5123,
            "count" : 1218,
            "type" : "SCALAR"
        },
        {
            "bufferView" : 12,
            "componentType" : 5126,
            "count" : 4770,
            "max" : [
                0.1467127799987793,
                0.1602320671081543,
                0.1499512791633606
            ],
            "min" : [
                -0.14672696590423584,
                -0.04173851013183594,
                -0.02361607551574707
            ],
            "type" : "VEC3"
        },
        {
            "bufferView" : 13,
            "componentType" : 5126,
            "count" : 4770,
            "type" : "VEC3"
        },
        {
            "bufferView" : 14,
            "componentType" : 5126,
            "count" : 4770,
            "type" : "VEC2"
        },
        {
            "bufferView" : 15,
            "componentType" : 5123,
            "count" : 4770,
            "type" : "SCALAR"
        },
        {
            "bufferView" : 16,
            "componentType" : 5126,
            "count" : 54,
            "max" : [
                0.16160058975219727,
                0.05916309356689453,
                0.0564960241317749
            ],
            "min" : [
                -0.16161465644836426,
                -0.004589080810546875,
                -0.05957317352294922
            ],
            "type" : "VEC3"
        },
        {
            "bufferView" : 17,
            "componentType" : 5126,
            "count" : 54,
            "type" : "VEC3"
        },
        {
            "bufferView" : 18,
            "componentType" : 5126,
            "count" : 54,
            "type" : "VEC2"
        },
        {
            "bufferView" : 19,
            "componentType" : 5123,
            "count" : 54,
            "type" : "SCALAR"
        },
        {
            "bufferView" : 20,
            "componentType" : 5126,
            "count" : 6,
            "max" : [
                0.1050419807434082,
                0.004570484161376953,
                0.04977691173553467
            ],
            "min" : [
                -0.10505616664886475,
                -0.00015974044799804688,
                0.04586648941040039
            ],
            "type" : "VEC3"
        },
        {
            "bufferView" : 21,
            "componentType" : 5126,
            "count" : 6,
            "type" : "VEC3"
        },
        {
            "bufferView" : 22,
            "componentType" : 5126,
            "count" : 6,
            "type" : "VEC2"
        },
        {
            "bufferView" : 23,
            "componentType" : 5123,
            "count" : 6,
            "type" : "SCALAR"
        },
        {
            "bufferView" : 24,
            "componentType" : 5126,
            "count" : 5664,
            "max" : [
                0.17633485794067383,
                0.02336883544921875,
                0.03491103649139404
            ],
            "min" : [
                -0.17634904384613037,
                -0.0590667724609375,
                -0.07157278060913086
            ],
            "type" : "VEC3"
        },
        {
            "bufferView" : 25,
            "componentType" : 5126,
            "count" : 5664,
            "type" : "VEC3"
        },
        {
            "bufferView" : 26,
            "componentType" : 5126,
            "count" : 5664,
            "type" : "VEC2"
        },
        {
            "bufferView" : 27,
            "componentType" : 5123,
            "count" : 5664,
            "type" : "SCALAR"
        }
    ],
    "bufferViews" : [
        {
            "buffer" : 0,
            "byteLength" : 68184,
            "byteOffset" : 0
        },
        {
            "buffer" : 0,
            "byteLength" : 68184,
            "byteOffset" : 68184
        },
        {
            "buffer" : 0,
            "byteLength" : 45456,
            "byteOffset" : 136368
        },
        {
            "buffer" : 0,
            "byteLength" : 11364,
            "byteOffset" : 181824
        },
        {
            "buffer" : 0,
            "byteLength" : 1368,
            "byteOffset" : 193188
        },
        {
            "buffer" : 0,
            "byteLength" : 1368,
            "byteOffset" : 194556
        },
        {
            "buffer" : 0,
            "byteLength" : 912,
            "byteOffset" : 195924
        },
        {
            "buffer" : 0,
            "byteLength" : 228,
            "byteOffset" : 196836
        },
        {
            "buffer" : 0,
            "byteLength" : 14616,
            "byteOffset" : 197064
        },
        {
            "buffer" : 0,
            "byteLength" : 14616,
            "byteOffset" : 211680
        },
        {
            "buffer" : 0,
            "byteLength" : 9744,
            "byteOffset" : 226296
        },
        {
            "buffer" : 0,
            "byteLength" : 2436,
            "byteOffset" : 236040
        },
        {
            "buffer" : 0,
            "byteLength" : 57240,
            "byteOffset" : 238476
        },
        {
            "buffer" : 0,
            "byteLength" : 57240,
            "byteOffset" : 295716
        },
        {
            "buffer" : 0,
            "byteLength" : 38160,
            "byteOffset" : 352956
        },
        {
            "buffer" : 0,
            "byteLength" : 9540,
            "byteOffset" : 391116
        },
        {
            "buffer" : 0,
            "byteLength" : 648,
            "byteOffset" : 400656
        },
        {
            "buffer" : 0,
            "byteLength" : 648,
            "byteOffset" : 401304
        },
        {
            "buffer" : 0,
            "byteLength" : 432,
            "byteOffset" : 401952
        },
        {
            "buffer" : 0,
            "byteLength" : 108,
            "byteOffset" : 402384
        },
        {
            "buffer" : 0,
            "byteLength" : 72,
            "byteOffset" : 402492
        },
        {
            "buffer" : 0,
            "byteLength" : 72,
            "byteOffset" : 402564
        },
        {
            "buffer" : 0,
            "byteLength" : 48,
            "byteOffset" : 402636
        },
        {
            "buffer" : 0,
            "byteLength" : 12,
            "byteOffset" : 402684
        },
        {
            "buffer" : 0,
            "byteLength" : 67968,
            "byteOffset" : 402696
        },
        {
            "buffer" : 0,
            "byteLength" : 67968,
            "byteOffset" : 470664
        },
        {
            "buffer" : 0,
            "byteLength" : 45312,
            "byteOffset" : 538632
        },
        {
            "buffer" : 0,
            "byteLength" : 11328,
            "byteOffset" : 583944
        }
    ],
    "buffers" : [
        {
            "byteLength" : 595272,
            "uri" : "luva_pano.bin"
        }
    ]
}
