{
    "asset" : {
        "generator" : "Khronos glTF Blender I/O v1.6.16",
        "version" : "2.0"
    },
    "scene" : 0,
    "scenes" : [
        {
            "name" : "Scene",
            "nodes" : [
                0
            ]
        }
    ],
    "nodes" : [
        {
            "mesh" : 0,
            "name" : "Leather_Glove_Class003.001",
            "rotation" : [
                0,
                -1,
                0,
                7.549790126404332e-08
            ],
            "scale" : [
                0.2540000379085541,
                0.2540000379085541,
                0.2540000379085541
            ],
            "translation" : [
                4.198930263519287,
                0,
                0
            ]
        }
    ],
    "animations" : [
        {
            "channels" : [
                {
                    "sampler" : 0,
                    "target" : {
                        "node" : 0,
                        "path" : "translation"
                    }
                },
                {
                    "sampler" : 1,
                    "target" : {
                        "node" : 0,
                        "path" : "rotation"
                    }
                },
                {
                    "sampler" : 2,
                    "target" : {
                        "node" : 0,
                        "path" : "scale"
                    }
                }
            ],
            "name" : "Leather_Glove_Class003|Take 001|BaseLayer",
            "samplers" : [
                {
                    "input" : 4,
                    "interpolation" : "STEP",
                    "output" : 5
                },
                {
                    "input" : 4,
                    "interpolation" : "STEP",
                    "output" : 6
                },
                {
                    "input" : 4,
                    "interpolation" : "STEP",
                    "output" : 7
                }
            ]
        },
        {
            "channels" : [
                {
                    "sampler" : 0,
                    "target" : {
                        "node" : 0,
                        "path" : "translation"
                    }
                },
                {
                    "sampler" : 1,
                    "target" : {
                        "node" : 0,
                        "path" : "rotation"
                    }
                },
                {
                    "sampler" : 2,
                    "target" : {
                        "node" : 0,
                        "path" : "scale"
                    }
                }
            ],
            "name" : "Leather_Glove_Class003|Take 001|BaseLayer_Leather_Glove_Cla.001",
            "samplers" : [
                {
                    "input" : 4,
                    "interpolation" : "STEP",
                    "output" : 8
                },
                {
                    "input" : 4,
                    "interpolation" : "STEP",
                    "output" : 9
                },
                {
                    "input" : 4,
                    "interpolation" : "STEP",
                    "output" : 10
                }
            ]
        }
    ],
    "materials" : [
        {
            "doubleSided" : true,
            "name" : "Luvas",
            "pbrMetallicRoughness" : {
                "baseColorFactor" : [
                    0.800000011920929,
                    0.800000011920929,
                    0.800000011920929,
                    1
                ],
                "roughnessFactor" : 0.5527864098548889
            }
        }
    ],
    "meshes" : [
        {
            "name" : "Mesh.014",
            "primitives" : [
                {
                    "attributes" : {
                        "POSITION" : 0,
                        "NORMAL" : 1,
                        "TEXCOORD_0" : 2
                    },
                    "indices" : 3,
                    "material" : 0
                }
            ]
        }
    ],
    "accessors" : [
        {
            "bufferView" : 0,
            "componentType" : 5126,
            "count" : 8602,
            "max" : [
                10.987464904785156,
                14.861042976379395,
                23.94739532470703
            ],
            "min" : [
                -10.859508514404297,
                -18.759197235107422,
                -15.61366081237793
            ],
            "type" : "VEC3"
        },
        {
            "bufferView" : 1,
            "componentType" : 5126,
            "count" : 8602,
            "type" : "VEC3"
        },
        {
            "bufferView" : 2,
            "componentType" : 5126,
            "count" : 8602,
            "type" : "VEC2"
        },
        {
            "bufferView" : 3,
            "componentType" : 5123,
            "count" : 40284,
            "type" : "SCALAR"
        },
        {
            "bufferView" : 4,
            "componentType" : 5126,
            "count" : 1,
            "max" : [
                0.033333336313565574
            ],
            "min" : [
                0.033333336313565574
            ],
            "type" : "SCALAR"
        },
        {
            "bufferView" : 5,
            "componentType" : 5126,
            "count" : 1,
            "type" : "VEC3"
        },
        {
            "bufferView" : 6,
            "componentType" : 5126,
            "count" : 1,
            "type" : "VEC4"
        },
        {
            "bufferView" : 7,
            "componentType" : 5126,
            "count" : 1,
            "type" : "VEC3"
        },
        {
            "bufferView" : 8,
            "componentType" : 5126,
            "count" : 1,
            "type" : "VEC3"
        },
        {
            "bufferView" : 9,
            "componentType" : 5126,
            "count" : 1,
            "type" : "VEC4"
        },
        {
            "bufferView" : 10,
            "componentType" : 5126,
            "count" : 1,
            "type" : "VEC3"
        }
    ],
    "bufferViews" : [
        {
            "buffer" : 0,
            "byteLength" : 103224,
            "byteOffset" : 0
        },
        {
            "buffer" : 0,
            "byteLength" : 103224,
            "byteOffset" : 103224
        },
        {
            "buffer" : 0,
            "byteLength" : 68816,
            "byteOffset" : 206448
        },
        {
            "buffer" : 0,
            "byteLength" : 80568,
            "byteOffset" : 275264
        },
        {
            "buffer" : 0,
            "byteLength" : 4,
            "byteOffset" : 355832
        },
        {
            "buffer" : 0,
            "byteLength" : 12,
            "byteOffset" : 355836
        },
        {
            "buffer" : 0,
            "byteLength" : 16,
            "byteOffset" : 355848
        },
        {
            "buffer" : 0,
            "byteLength" : 12,
            "byteOffset" : 355864
        },
        {
            "buffer" : 0,
            "byteLength" : 12,
            "byteOffset" : 355876
        },
        {
            "buffer" : 0,
            "byteLength" : 16,
            "byteOffset" : 355888
        },
        {
            "buffer" : 0,
            "byteLength" : 12,
            "byteOffset" : 355904
        }
    ],
    "buffers" : [
        {
            "byteLength" : 355916,
            "uri" : "luvas_couro.bin"
        }
    ]
}
