{
    "asset" : {
        "generator" : "Khronos glTF Blender I/O v1.6.16",
        "version" : "2.0"
    },
    "scene" : 0,
    "scenes" : [
        {
            "name" : "Scene",
            "nodes" : [
                0
            ]
        }
    ],
    "nodes" : [
        {
            "mesh" : 0,
            "name" : "Shell2",
            "rotation" : [
                0.7071043252944946,
                -0.0018753514159470797,
                -0.7071042656898499,
                -0.0018753812182694674
            ],
            "scale" : [
                0.06451600044965744,
                0.06451600044965744,
                0.06451600044965744
            ],
            "translation" : [
                0.01648605614900589,
                0.406138151884079,
                0.0024977775756269693
            ]
        }
    ],
    "materials" : [
        {
            "doubleSided" : true,
            "name" : "08 - Default",
            "pbrMetallicRoughness" : {
                "baseColorFactor" : [
                    0,
                    0.21568627655506134,
                    0.7647058963775635,
                    1
                ],
                "roughnessFactor" : 0.858578622341156
            }
        },
        {
            "doubleSided" : true,
            "name" : "Material #27",
            "pbrMetallicRoughness" : {
                "baseColorFactor" : [
                    0.7921568751335144,
                    0.8196078538894653,
                    0.9333333373069763,
                    1
                ],
                "roughnessFactor" : 0.858578622341156
            }
        },
        {
            "doubleSided" : true,
            "name" : "09 - Default.002",
            "pbrMetallicRoughness" : {
                "baseColorFactor" : [
                    0.11764705926179886,
                    0.11764705926179886,
                    0.11764705926179886,
                    1
                ],
                "roughnessFactor" : 0.858578622341156
            }
        }
    ],
    "meshes" : [
        {
            "name" : "Mesh.015",
            "primitives" : [
                {
                    "attributes" : {
                        "POSITION" : 0,
                        "NORMAL" : 1,
                        "TEXCOORD_0" : 2
                    },
                    "indices" : 3,
                    "material" : 0
                },
                {
                    "attributes" : {
                        "POSITION" : 4,
                        "NORMAL" : 5,
                        "TEXCOORD_0" : 6
                    },
                    "indices" : 7,
                    "material" : 1
                },
                {
                    "attributes" : {
                        "POSITION" : 8,
                        "NORMAL" : 9,
                        "TEXCOORD_0" : 10
                    },
                    "indices" : 11,
                    "material" : 2
                }
            ]
        }
    ],
    "accessors" : [
        {
            "bufferView" : 0,
            "componentType" : 5126,
            "count" : 7149,
            "max" : [
                2.5016729831695557,
                0.294372022151947,
                2.356045722961426
            ],
            "min" : [
                -2.2670023441314697,
                -1.9106426239013672,
                -1.8947372436523438
            ],
            "type" : "VEC3"
        },
        {
            "bufferView" : 1,
            "componentType" : 5126,
            "count" : 7149,
            "type" : "VEC3"
        },
        {
            "bufferView" : 2,
            "componentType" : 5126,
            "count" : 7149,
            "type" : "VEC2"
        },
        {
            "bufferView" : 3,
            "componentType" : 5123,
            "count" : 7158,
            "type" : "SCALAR"
        },
        {
            "bufferView" : 4,
            "componentType" : 5126,
            "count" : 3394,
            "max" : [
                2.6132030487060547,
                4.588485240936279,
                0.6110812425613403
            ],
            "min" : [
                -2.535771608352661,
                0.10689246654510498,
                -0.133042573928833
            ],
            "type" : "VEC3"
        },
        {
            "bufferView" : 5,
            "componentType" : 5126,
            "count" : 3394,
            "type" : "VEC3"
        },
        {
            "bufferView" : 6,
            "componentType" : 5126,
            "count" : 3394,
            "type" : "VEC2"
        },
        {
            "bufferView" : 7,
            "componentType" : 5123,
            "count" : 3696,
            "type" : "SCALAR"
        },
        {
            "bufferView" : 8,
            "componentType" : 5126,
            "count" : 468,
            "max" : [
                1.1669155359268188,
                -0.8219606876373291,
                -1.1789178848266602
            ],
            "min" : [
                -1.0181550979614258,
                -1.4464670419692993,
                -1.7836966514587402
            ],
            "type" : "VEC3"
        },
        {
            "bufferView" : 9,
            "componentType" : 5126,
            "count" : 468,
            "type" : "VEC3"
        },
        {
            "bufferView" : 10,
            "componentType" : 5126,
            "count" : 468,
            "type" : "VEC2"
        },
        {
            "bufferView" : 11,
            "componentType" : 5123,
            "count" : 468,
            "type" : "SCALAR"
        }
    ],
    "bufferViews" : [
        {
            "buffer" : 0,
            "byteLength" : 85788,
            "byteOffset" : 0
        },
        {
            "buffer" : 0,
            "byteLength" : 85788,
            "byteOffset" : 85788
        },
        {
            "buffer" : 0,
            "byteLength" : 57192,
            "byteOffset" : 171576
        },
        {
            "buffer" : 0,
            "byteLength" : 14316,
            "byteOffset" : 228768
        },
        {
            "buffer" : 0,
            "byteLength" : 40728,
            "byteOffset" : 243084
        },
        {
            "buffer" : 0,
            "byteLength" : 40728,
            "byteOffset" : 283812
        },
        {
            "buffer" : 0,
            "byteLength" : 27152,
            "byteOffset" : 324540
        },
        {
            "buffer" : 0,
            "byteLength" : 7392,
            "byteOffset" : 351692
        },
        {
            "buffer" : 0,
            "byteLength" : 5616,
            "byteOffset" : 359084
        },
        {
            "buffer" : 0,
            "byteLength" : 5616,
            "byteOffset" : 364700
        },
        {
            "buffer" : 0,
            "byteLength" : 3744,
            "byteOffset" : 370316
        },
        {
            "buffer" : 0,
            "byteLength" : 936,
            "byteOffset" : 374060
        }
    ],
    "buffers" : [
        {
            "byteLength" : 374996,
            "uri" : "mascara.bin"
        }
    ]
}
