{
    "asset" : {
        "generator" : "Khronos glTF Blender I/O v1.6.16",
        "version" : "2.0"
    },
    "scene" : 0,
    "scenes" : [
        {
            "name" : "Scene",
            "nodes" : [
                0
            ]
        }
    ],
    "nodes" : [
        {
            "mesh" : 0,
            "name" : "Shell2",
            "rotation" : [
                0.06442217528820038,
                -0.3212488889694214,
                0.8882668614387512,
                0.32191789150238037
            ],
            "scale" : [
                0.06451600044965744,
                0.06451600044965744,
                0.06451600044965744
            ],
            "translation" : [
                -0.08348911255598068,
                0.3230784237384796,
                0.20547333359718323
            ]
        }
    ],
    "materials" : [
        {
            "doubleSided" : true,
            "name" : "08 - Default",
            "pbrMetallicRoughness" : {
                "baseColorFactor" : [
                    0,
                    0.21568627655506134,
                    0.7647058963775635,
                    1
                ],
                "roughnessFactor" : 0.858578622341156
            }
        },
        {
            "doubleSided" : true,
            "name" : "Material #27",
            "pbrMetallicRoughness" : {
                "baseColorFactor" : [
                    0.7921568751335144,
                    0.8196078538894653,
                    0.9333333373069763,
                    1
                ],
                "roughnessFactor" : 0.858578622341156
            }
        },
        {
            "doubleSided" : true,
            "name" : "09 - Default.002",
            "pbrMetallicRoughness" : {
                "baseColorFactor" : [
                    0.11764705926179886,
                    0.11764705926179886,
                    0.11764705926179886,
                    1
                ],
                "roughnessFactor" : 0.858578622341156
            }
        }
    ],
    "meshes" : [
        {
            "name" : "Mesh.012",
            "primitives" : [
                {
                    "attributes" : {
                        "POSITION" : 0,
                        "NORMAL" : 1,
                        "TEXCOORD_0" : 2
                    },
                    "indices" : 3,
                    "material" : 0
                },
                {
                    "attributes" : {
                        "POSITION" : 4,
                        "NORMAL" : 5,
                        "TEXCOORD_0" : 6
                    },
                    "indices" : 7,
                    "material" : 1
                },
                {
                    "attributes" : {
                        "POSITION" : 8,
                        "NORMAL" : 9,
                        "TEXCOORD_0" : 10
                    },
                    "indices" : 11,
                    "material" : 2
                }
            ]
        }
    ],
    "accessors" : [
        {
            "bufferView" : 0,
            "componentType" : 5126,
            "count" : 7150,
            "max" : [
                -0.0045343488454818726,
                0.3216245770454407,
                -8.195544043519828e-16
            ],
            "min" : [
                -4.773209571838379,
                -1.8833900690078735,
                -4.2507829666137695
            ],
            "type" : "VEC3"
        },
        {
            "bufferView" : 1,
            "componentType" : 5126,
            "count" : 7150,
            "type" : "VEC3"
        },
        {
            "bufferView" : 2,
            "componentType" : 5126,
            "count" : 7150,
            "type" : "VEC2"
        },
        {
            "bufferView" : 3,
            "componentType" : 5123,
            "count" : 7158,
            "type" : "SCALAR"
        },
        {
            "bufferView" : 4,
            "componentType" : 5126,
            "count" : 3373,
            "max" : [
                0.10699582099914551,
                4.6157379150390625,
                -1.7449644804000854
            ],
            "min" : [
                -5.04197883605957,
                0.13414502143859863,
                -2.489088296890259
            ],
            "type" : "VEC3"
        },
        {
            "bufferView" : 5,
            "componentType" : 5126,
            "count" : 3373,
            "type" : "VEC3"
        },
        {
            "bufferView" : 6,
            "componentType" : 5126,
            "count" : 3373,
            "type" : "VEC2"
        },
        {
            "bufferView" : 7,
            "componentType" : 5123,
            "count" : 3696,
            "type" : "SCALAR"
        },
        {
            "bufferView" : 8,
            "componentType" : 5126,
            "count" : 466,
            "max" : [
                -1.3392916917800903,
                -0.7947081327438354,
                -3.534963607788086
            ],
            "min" : [
                -3.524362325668335,
                -1.4192144870758057,
                -4.139742374420166
            ],
            "type" : "VEC3"
        },
        {
            "bufferView" : 9,
            "componentType" : 5126,
            "count" : 466,
            "type" : "VEC3"
        },
        {
            "bufferView" : 10,
            "componentType" : 5126,
            "count" : 466,
            "type" : "VEC2"
        },
        {
            "bufferView" : 11,
            "componentType" : 5123,
            "count" : 468,
            "type" : "SCALAR"
        }
    ],
    "bufferViews" : [
        {
            "buffer" : 0,
            "byteLength" : 85800,
            "byteOffset" : 0
        },
        {
            "buffer" : 0,
            "byteLength" : 85800,
            "byteOffset" : 85800
        },
        {
            "buffer" : 0,
            "byteLength" : 57200,
            "byteOffset" : 171600
        },
        {
            "buffer" : 0,
            "byteLength" : 14316,
            "byteOffset" : 228800
        },
        {
            "buffer" : 0,
            "byteLength" : 40476,
            "byteOffset" : 243116
        },
        {
            "buffer" : 0,
            "byteLength" : 40476,
            "byteOffset" : 283592
        },
        {
            "buffer" : 0,
            "byteLength" : 26984,
            "byteOffset" : 324068
        },
        {
            "buffer" : 0,
            "byteLength" : 7392,
            "byteOffset" : 351052
        },
        {
            "buffer" : 0,
            "byteLength" : 5592,
            "byteOffset" : 358444
        },
        {
            "buffer" : 0,
            "byteLength" : 5592,
            "byteOffset" : 364036
        },
        {
            "buffer" : 0,
            "byteLength" : 3728,
            "byteOffset" : 369628
        },
        {
            "buffer" : 0,
            "byteLength" : 936,
            "byteOffset" : 373356
        }
    ],
    "buffers" : [
        {
            "byteLength" : 374292,
            "uri" : "mascara.bin"
        }
    ]
}
