{
    "asset" : {
        "generator" : "Khronos glTF Blender I/O v1.6.16",
        "version" : "2.0"
    },
    "scene" : 0,
    "scenes" : [
        {
            "name" : "Scene",
            "nodes" : [
                0
            ]
        }
    ],
    "nodes" : [
        {
            "mesh" : 0,
            "name" : "Mesh10",
            "rotation" : [
                0.1717642843723297,
                0.03050476685166359,
                -0.3753001093864441,
                0.9103385806083679
            ],
            "scale" : [
                0.1396714299917221,
                0.1396714150905609,
                0.1396714299917221
            ],
            "translation" : [
                0.0018186084926128387,
                0.00877198576927185,
                -0.0003522932529449463
            ]
        }
    ],
    "materials" : [
        {
            "doubleSided" : true,
            "name" : "_Low_E_Glass_",
            "pbrMetallicRoughness" : {
                "baseColorFactor" : [
                    0.729411780834198,
                    0.772549033164978,
                    0.8392156958580017,
                    0.30000001192092896
                ],
                "roughnessFactor" : 0.5527864098548889
            }
        },
        {
            "doubleSided" : true,
            "name" : "Translucent_Glass_Gray",
            "pbrMetallicRoughness" : {
                "baseColorFactor" : [
                    0.501960813999176,
                    0.501960813999176,
                    0.501960813999176,
                    0.5
                ],
                "roughnessFactor" : 0.5527864098548889
            }
        },
        {
            "doubleSided" : true,
            "name" : "FrontColor",
            "pbrMetallicRoughness" : {
                "roughnessFactor" : 0.5527864098548889
            }
        },
        {
            "doubleSided" : true,
            "name" : "BackColor",
            "pbrMetallicRoughness" : {
                "baseColorFactor" : [
                    0.6352941393852234,
                    0.7176470756530762,
                    0.7764706015586853,
                    1
                ],
                "roughnessFactor" : 0.5527864098548889
            }
        }
    ],
    "meshes" : [
        {
            "name" : "Mesh",
            "primitives" : [
                {
                    "attributes" : {
                        "POSITION" : 0,
                        "NORMAL" : 1,
                        "TEXCOORD_0" : 2
                    },
                    "indices" : 3,
                    "material" : 0
                },
                {
                    "attributes" : {
                        "POSITION" : 4,
                        "NORMAL" : 5,
                        "TEXCOORD_0" : 6
                    },
                    "indices" : 7,
                    "material" : 1
                },
                {
                    "attributes" : {
                        "POSITION" : 8,
                        "NORMAL" : 9,
                        "TEXCOORD_0" : 10
                    },
                    "indices" : 11,
                    "material" : 2
                },
                {
                    "attributes" : {
                        "POSITION" : 12,
                        "NORMAL" : 13,
                        "TEXCOORD_0" : 14
                    },
                    "indices" : 15,
                    "material" : 3
                }
            ]
        }
    ],
    "accessors" : [
        {
            "bufferView" : 0,
            "componentType" : 5126,
            "count" : 16858,
            "max" : [
                0.09295332431793213,
                0.05187952518463135,
                0.04207253456115723
            ],
            "min" : [
                -0.09456455707550049,
                -0.08568120002746582,
                -0.022513270378112793
            ],
            "type" : "VEC3"
        },
        {
            "bufferView" : 1,
            "componentType" : 5126,
            "count" : 16858,
            "type" : "VEC3"
        },
        {
            "bufferView" : 2,
            "componentType" : 5126,
            "count" : 16858,
            "type" : "VEC2"
        },
        {
            "bufferView" : 3,
            "componentType" : 5123,
            "count" : 16887,
            "type" : "SCALAR"
        },
        {
            "bufferView" : 4,
            "componentType" : 5126,
            "count" : 3574,
            "max" : [
                0.09295332431793213,
                0.05187952518463135,
                0.04207253456115723
            ],
            "min" : [
                -0.09456455707550049,
                0.015720486640930176,
                -0.022513270378112793
            ],
            "type" : "VEC3"
        },
        {
            "bufferView" : 5,
            "componentType" : 5126,
            "count" : 3574,
            "type" : "VEC3"
        },
        {
            "bufferView" : 6,
            "componentType" : 5126,
            "count" : 3574,
            "type" : "VEC2"
        },
        {
            "bufferView" : 7,
            "componentType" : 5123,
            "count" : 3591,
            "type" : "SCALAR"
        },
        {
            "bufferView" : 8,
            "componentType" : 5126,
            "count" : 381,
            "max" : [
                0.08305978775024414,
                0.026825308799743652,
                0.022831439971923828
            ],
            "min" : [
                -0.0846710205078125,
                0.015454530715942383,
                -0.020345568656921387
            ],
            "type" : "VEC3"
        },
        {
            "bufferView" : 9,
            "componentType" : 5126,
            "count" : 381,
            "type" : "VEC3"
        },
        {
            "bufferView" : 10,
            "componentType" : 5126,
            "count" : 381,
            "type" : "VEC2"
        },
        {
            "bufferView" : 11,
            "componentType" : 5123,
            "count" : 381,
            "type" : "SCALAR"
        },
        {
            "bufferView" : 12,
            "componentType" : 5126,
            "count" : 381,
            "max" : [
                0.08305978775024414,
                0.026825308799743652,
                0.022831439971923828
            ],
            "min" : [
                -0.0846710205078125,
                0.015454530715942383,
                -0.020345568656921387
            ],
            "type" : "VEC3"
        },
        {
            "bufferView" : 13,
            "componentType" : 5126,
            "count" : 381,
            "type" : "VEC3"
        },
        {
            "bufferView" : 14,
            "componentType" : 5126,
            "count" : 381,
            "type" : "VEC2"
        },
        {
            "bufferView" : 15,
            "componentType" : 5123,
            "count" : 381,
            "type" : "SCALAR"
        }
    ],
    "bufferViews" : [
        {
            "buffer" : 0,
            "byteLength" : 202296,
            "byteOffset" : 0
        },
        {
            "buffer" : 0,
            "byteLength" : 202296,
            "byteOffset" : 202296
        },
        {
            "buffer" : 0,
            "byteLength" : 134864,
            "byteOffset" : 404592
        },
        {
            "buffer" : 0,
            "byteLength" : 33774,
            "byteOffset" : 539456
        },
        {
            "buffer" : 0,
            "byteLength" : 42888,
            "byteOffset" : 573232
        },
        {
            "buffer" : 0,
            "byteLength" : 42888,
            "byteOffset" : 616120
        },
        {
            "buffer" : 0,
            "byteLength" : 28592,
            "byteOffset" : 659008
        },
        {
            "buffer" : 0,
            "byteLength" : 7182,
            "byteOffset" : 687600
        },
        {
            "buffer" : 0,
            "byteLength" : 4572,
            "byteOffset" : 694784
        },
        {
            "buffer" : 0,
            "byteLength" : 4572,
            "byteOffset" : 699356
        },
        {
            "buffer" : 0,
            "byteLength" : 3048,
            "byteOffset" : 703928
        },
        {
            "buffer" : 0,
            "byteLength" : 762,
            "byteOffset" : 706976
        },
        {
            "buffer" : 0,
            "byteLength" : 4572,
            "byteOffset" : 707740
        },
        {
            "buffer" : 0,
            "byteLength" : 4572,
            "byteOffset" : 712312
        },
        {
            "buffer" : 0,
            "byteLength" : 3048,
            "byteOffset" : 716884
        },
        {
            "buffer" : 0,
            "byteLength" : 762,
            "byteOffset" : 719932
        }
    ],
    "buffers" : [
        {
            "byteLength" : 720696,
            "uri" : "oculos.bin"
        }
    ]
}
