{
    "asset" : {
        "generator" : "Khronos glTF Blender I/O v1.6.16",
        "version" : "2.0"
    },
    "scene" : 0,
    "scenes" : [
        {
            "name" : "Scene",
            "nodes" : [
                0
            ]
        }
    ],
    "nodes" : [
        {
            "mesh" : 0,
            "name" : "Mesh10",
            "rotation" : [
                0.7071068286895752,
                0,
                0,
                0.7071067094802856
            ],
            "scale" : [
                0.1396714299917221,
                0.1396714299917221,
                0.1396714299917221
            ],
            "translation" : [
                0,
                0.007998049259185791,
                0.0034262388944625854
            ]
        }
    ],
    "materials" : [
        {
            "doubleSided" : true,
            "name" : "_Low_E_Glass_",
            "pbrMetallicRoughness" : {
                "baseColorFactor" : [
                    0.729411780834198,
                    0.772549033164978,
                    0.8392156958580017,
                    0.30000001192092896
                ],
                "roughnessFactor" : 0.5527864098548889
            }
        },
        {
            "doubleSided" : true,
            "name" : "Translucent_Glass_Gray",
            "pbrMetallicRoughness" : {
                "baseColorFactor" : [
                    0.501960813999176,
                    0.501960813999176,
                    0.501960813999176,
                    0.5
                ],
                "roughnessFactor" : 0.5527864098548889
            }
        },
        {
            "doubleSided" : true,
            "name" : "FrontColor",
            "pbrMetallicRoughness" : {
                "roughnessFactor" : 0.5527864098548889
            }
        },
        {
            "doubleSided" : true,
            "name" : "BackColor",
            "pbrMetallicRoughness" : {
                "baseColorFactor" : [
                    0.6352941393852234,
                    0.7176470756530762,
                    0.7764706015586853,
                    1
                ],
                "roughnessFactor" : 0.5527864098548889
            }
        }
    ],
    "meshes" : [
        {
            "name" : "Mesh",
            "primitives" : [
                {
                    "attributes" : {
                        "POSITION" : 0,
                        "NORMAL" : 1,
                        "TEXCOORD_0" : 2
                    },
                    "indices" : 3,
                    "material" : 0
                },
                {
                    "attributes" : {
                        "POSITION" : 4,
                        "NORMAL" : 5,
                        "TEXCOORD_0" : 6
                    },
                    "indices" : 7,
                    "material" : 1
                },
                {
                    "attributes" : {
                        "POSITION" : 8,
                        "NORMAL" : 9,
                        "TEXCOORD_0" : 10
                    },
                    "indices" : 11,
                    "material" : 2
                },
                {
                    "attributes" : {
                        "POSITION" : 12,
                        "NORMAL" : 13,
                        "TEXCOORD_0" : 14
                    },
                    "indices" : 15,
                    "material" : 3
                }
            ]
        }
    ],
    "accessors" : [
        {
            "bufferView" : 0,
            "componentType" : 5126,
            "count" : 18244,
            "max" : [
                0.09374499320983887,
                0.04616236686706543,
                0.040634751319885254
            ],
            "min" : [
                -0.09377288818359375,
                -0.09139835834503174,
                -0.023951053619384766
            ],
            "type" : "VEC3"
        },
        {
            "bufferView" : 1,
            "componentType" : 5126,
            "count" : 18244,
            "type" : "VEC3"
        },
        {
            "bufferView" : 2,
            "componentType" : 5126,
            "count" : 18244,
            "type" : "VEC2"
        },
        {
            "bufferView" : 3,
            "componentType" : 5123,
            "count" : 18300,
            "type" : "SCALAR"
        },
        {
            "bufferView" : 4,
            "componentType" : 5126,
            "count" : 3777,
            "max" : [
                0.09374499320983887,
                0.04616236686706543,
                0.040634751319885254
            ],
            "min" : [
                -0.09377288818359375,
                0.010003328323364258,
                -0.023951053619384766
            ],
            "type" : "VEC3"
        },
        {
            "bufferView" : 5,
            "componentType" : 5126,
            "count" : 3777,
            "type" : "VEC3"
        },
        {
            "bufferView" : 6,
            "componentType" : 5126,
            "count" : 3777,
            "type" : "VEC2"
        },
        {
            "bufferView" : 7,
            "componentType" : 5123,
            "count" : 3786,
            "type" : "SCALAR"
        },
        {
            "bufferView" : 8,
            "componentType" : 5126,
            "count" : 642,
            "max" : [
                0.08385145664215088,
                0.021108150482177734,
                0.021393537521362305
            ],
            "min" : [
                -0.08387935161590576,
                0.009851574897766113,
                -0.021678566932678223
            ],
            "type" : "VEC3"
        },
        {
            "bufferView" : 9,
            "componentType" : 5126,
            "count" : 642,
            "type" : "VEC3"
        },
        {
            "bufferView" : 10,
            "componentType" : 5126,
            "count" : 642,
            "type" : "VEC2"
        },
        {
            "bufferView" : 11,
            "componentType" : 5123,
            "count" : 642,
            "type" : "SCALAR"
        },
        {
            "bufferView" : 12,
            "componentType" : 5126,
            "count" : 642,
            "max" : [
                0.08385145664215088,
                0.021108150482177734,
                0.021393537521362305
            ],
            "min" : [
                -0.08387935161590576,
                0.009851574897766113,
                -0.021678566932678223
            ],
            "type" : "VEC3"
        },
        {
            "bufferView" : 13,
            "componentType" : 5126,
            "count" : 642,
            "type" : "VEC3"
        },
        {
            "bufferView" : 14,
            "componentType" : 5126,
            "count" : 642,
            "type" : "VEC2"
        },
        {
            "bufferView" : 15,
            "componentType" : 5123,
            "count" : 642,
            "type" : "SCALAR"
        }
    ],
    "bufferViews" : [
        {
            "buffer" : 0,
            "byteLength" : 218928,
            "byteOffset" : 0
        },
        {
            "buffer" : 0,
            "byteLength" : 218928,
            "byteOffset" : 218928
        },
        {
            "buffer" : 0,
            "byteLength" : 145952,
            "byteOffset" : 437856
        },
        {
            "buffer" : 0,
            "byteLength" : 36600,
            "byteOffset" : 583808
        },
        {
            "buffer" : 0,
            "byteLength" : 45324,
            "byteOffset" : 620408
        },
        {
            "buffer" : 0,
            "byteLength" : 45324,
            "byteOffset" : 665732
        },
        {
            "buffer" : 0,
            "byteLength" : 30216,
            "byteOffset" : 711056
        },
        {
            "buffer" : 0,
            "byteLength" : 7572,
            "byteOffset" : 741272
        },
        {
            "buffer" : 0,
            "byteLength" : 7704,
            "byteOffset" : 748844
        },
        {
            "buffer" : 0,
            "byteLength" : 7704,
            "byteOffset" : 756548
        },
        {
            "buffer" : 0,
            "byteLength" : 5136,
            "byteOffset" : 764252
        },
        {
            "buffer" : 0,
            "byteLength" : 1284,
            "byteOffset" : 769388
        },
        {
            "buffer" : 0,
            "byteLength" : 7704,
            "byteOffset" : 770672
        },
        {
            "buffer" : 0,
            "byteLength" : 7704,
            "byteOffset" : 778376
        },
        {
            "buffer" : 0,
            "byteLength" : 5136,
            "byteOffset" : 786080
        },
        {
            "buffer" : 0,
            "byteLength" : 1284,
            "byteOffset" : 791216
        }
    ],
    "buffers" : [
        {
            "byteLength" : 792500,
            "uri" : "oculos.bin"
        }
    ]
}
