{
    "asset" : {
        "generator" : "Khronos glTF Blender I/O v1.6.16",
        "version" : "2.0"
    },
    "scene" : 0,
    "scenes" : [
        {
            "name" : "Scene",
            "nodes" : [
                0
            ]
        }
    ],
    "nodes" : [
        {
            "mesh" : 0,
            "name" : "Mesh10",
            "rotation" : [
                0.1717642843723297,
                0.03050476685166359,
                -0.3753001093864441,
                0.9103385806083679
            ],
            "scale" : [
                0.1396714299917221,
                0.1396714150905609,
                0.1396714299917221
            ],
            "translation" : [
                -0.03773592785000801,
                0.15870001912117004,
                0.3050563633441925
            ]
        }
    ],
    "materials" : [
        {
            "doubleSided" : true,
            "name" : "_Low_E_Glass_",
            "pbrMetallicRoughness" : {
                "baseColorFactor" : [
                    0.729411780834198,
                    0.772549033164978,
                    0.8392156958580017,
                    0.24264705181121826
                ],
                "roughnessFactor" : 0
            }
        },
        {
            "doubleSided" : true,
            "name" : "Translucent_Glass_Gray",
            "pbrMetallicRoughness" : {
                "baseColorFactor" : [
                    0.501960813999176,
                    0.501960813999176,
                    0.501960813999176,
                    0.5
                ],
                "roughnessFactor" : 0.5527864098548889
            }
        },
        {
            "doubleSided" : true,
            "name" : "FrontColor.001",
            "pbrMetallicRoughness" : {
                "roughnessFactor" : 0.5527864098548889
            }
        },
        {
            "doubleSided" : true,
            "name" : "BackColor.001",
            "pbrMetallicRoughness" : {
                "baseColorFactor" : [
                    0.6352941393852234,
                    0.7176470756530762,
                    0.7764706015586853,
                    1
                ],
                "roughnessFactor" : 0.5527864098548889
            }
        }
    ],
    "meshes" : [
        {
            "name" : "Mesh.001",
            "primitives" : [
                {
                    "attributes" : {
                        "POSITION" : 0,
                        "NORMAL" : 1,
                        "TEXCOORD_0" : 2
                    },
                    "indices" : 3,
                    "material" : 0
                },
                {
                    "attributes" : {
                        "POSITION" : 4,
                        "NORMAL" : 5,
                        "TEXCOORD_0" : 6
                    },
                    "indices" : 7,
                    "material" : 1
                },
                {
                    "attributes" : {
                        "POSITION" : 8,
                        "NORMAL" : 9,
                        "TEXCOORD_0" : 10
                    },
                    "indices" : 11,
                    "material" : 2
                },
                {
                    "attributes" : {
                        "POSITION" : 12,
                        "NORMAL" : 13,
                        "TEXCOORD_0" : 14
                    },
                    "indices" : 15,
                    "material" : 3
                }
            ]
        }
    ],
    "accessors" : [
        {
            "bufferView" : 0,
            "componentType" : 5126,
            "count" : 16869,
            "max" : [
                1.4214321374893188,
                -1.0931020975112915,
                -1.6719690561294556
            ],
            "min" : [
                1.2339142560958862,
                -1.2306628227233887,
                -1.7365548610687256
            ],
            "type" : "VEC3"
        },
        {
            "bufferView" : 1,
            "componentType" : 5126,
            "count" : 16869,
            "type" : "VEC3"
        },
        {
            "bufferView" : 2,
            "componentType" : 5126,
            "count" : 16869,
            "type" : "VEC2"
        },
        {
            "bufferView" : 3,
            "componentType" : 5123,
            "count" : 16887,
            "type" : "SCALAR"
        },
        {
            "bufferView" : 4,
            "componentType" : 5126,
            "count" : 3585,
            "max" : [
                1.4214321374893188,
                -1.0931020975112915,
                -1.6719690561294556
            ],
            "min" : [
                1.2339142560958862,
                -1.1292611360549927,
                -1.7365548610687256
            ],
            "type" : "VEC3"
        },
        {
            "bufferView" : 5,
            "componentType" : 5126,
            "count" : 3585,
            "type" : "VEC3"
        },
        {
            "bufferView" : 6,
            "componentType" : 5126,
            "count" : 3585,
            "type" : "VEC2"
        },
        {
            "bufferView" : 7,
            "componentType" : 5123,
            "count" : 3591,
            "type" : "SCALAR"
        },
        {
            "bufferView" : 8,
            "componentType" : 5126,
            "count" : 381,
            "max" : [
                1.4115386009216309,
                -1.1181563138961792,
                -1.691210150718689
            ],
            "min" : [
                1.2438077926635742,
                -1.1295270919799805,
                -1.7343871593475342
            ],
            "type" : "VEC3"
        },
        {
            "bufferView" : 9,
            "componentType" : 5126,
            "count" : 381,
            "type" : "VEC3"
        },
        {
            "bufferView" : 10,
            "componentType" : 5126,
            "count" : 381,
            "type" : "VEC2"
        },
        {
            "bufferView" : 11,
            "componentType" : 5123,
            "count" : 381,
            "type" : "SCALAR"
        },
        {
            "bufferView" : 12,
            "componentType" : 5126,
            "count" : 381,
            "max" : [
                1.4115386009216309,
                -1.1181563138961792,
                -1.691210150718689
            ],
            "min" : [
                1.2438077926635742,
                -1.1295270919799805,
                -1.7343871593475342
            ],
            "type" : "VEC3"
        },
        {
            "bufferView" : 13,
            "componentType" : 5126,
            "count" : 381,
            "type" : "VEC3"
        },
        {
            "bufferView" : 14,
            "componentType" : 5126,
            "count" : 381,
            "type" : "VEC2"
        },
        {
            "bufferView" : 15,
            "componentType" : 5123,
            "count" : 381,
            "type" : "SCALAR"
        }
    ],
    "bufferViews" : [
        {
            "buffer" : 0,
            "byteLength" : 202428,
            "byteOffset" : 0
        },
        {
            "buffer" : 0,
            "byteLength" : 202428,
            "byteOffset" : 202428
        },
        {
            "buffer" : 0,
            "byteLength" : 134952,
            "byteOffset" : 404856
        },
        {
            "buffer" : 0,
            "byteLength" : 33774,
            "byteOffset" : 539808
        },
        {
            "buffer" : 0,
            "byteLength" : 43020,
            "byteOffset" : 573584
        },
        {
            "buffer" : 0,
            "byteLength" : 43020,
            "byteOffset" : 616604
        },
        {
            "buffer" : 0,
            "byteLength" : 28680,
            "byteOffset" : 659624
        },
        {
            "buffer" : 0,
            "byteLength" : 7182,
            "byteOffset" : 688304
        },
        {
            "buffer" : 0,
            "byteLength" : 4572,
            "byteOffset" : 695488
        },
        {
            "buffer" : 0,
            "byteLength" : 4572,
            "byteOffset" : 700060
        },
        {
            "buffer" : 0,
            "byteLength" : 3048,
            "byteOffset" : 704632
        },
        {
            "buffer" : 0,
            "byteLength" : 762,
            "byteOffset" : 707680
        },
        {
            "buffer" : 0,
            "byteLength" : 4572,
            "byteOffset" : 708444
        },
        {
            "buffer" : 0,
            "byteLength" : 4572,
            "byteOffset" : 713016
        },
        {
            "buffer" : 0,
            "byteLength" : 3048,
            "byteOffset" : 717588
        },
        {
            "buffer" : 0,
            "byteLength" : 762,
            "byteOffset" : 720636
        }
    ],
    "buffers" : [
        {
            "byteLength" : 721400,
            "uri" : "oculos.bin"
        }
    ]
}
