{
    "asset" : {
        "generator" : "Khronos glTF Blender I/O v1.5.17",
        "version" : "2.0"
    },
    "scene" : 0,
    "scenes" : [
        {
            "name" : "Scene",
            "nodes" : [
                0
            ]
        }
    ],
    "nodes" : [
        {
            "mesh" : 0,
            "name" : "couro - protetor bra\ufffdo",
            "rotation" : [
                0.7071068286895752,
                0,
                0,
                0.7071067094802856
            ],
            "scale" : [
                0.010000000707805157,
                0.010000000707805157,
                0.010000000707805157
            ]
        }
    ],
    "materials" : [
        {
            "doubleSided" : true,
            "name" : "Leather_Lambskin_FRONT_3147719",
            "pbrMetallicRoughness" : {
                "metallicFactor" : 0,
                "roughnessFactor" : 0.4636862874031067
            }
        }
    ],
    "meshes" : [
        {
            "name" : "couro - protetor bra\ufffdo",
            "primitives" : [
                {
                    "attributes" : {
                        "POSITION" : 0,
                        "NORMAL" : 1,
                        "TEXCOORD_0" : 2
                    },
                    "indices" : 3,
                    "material" : 0
                }
            ]
        }
    ],
    "accessors" : [
        {
            "bufferView" : 0,
            "componentType" : 5126,
            "count" : 2163,
            "max" : [
                18.293317794799805,
                9.145577430725098,
                2.3256959915161133
            ],
            "min" : [
                -18.007844924926758,
                -7.026464939117432,
                -4.850008964538574
            ],
            "type" : "VEC3"
        },
        {
            "bufferView" : 1,
            "componentType" : 5126,
            "count" : 2163,
            "type" : "VEC3"
        },
        {
            "bufferView" : 2,
            "componentType" : 5126,
            "count" : 2163,
            "type" : "VEC2"
        },
        {
            "bufferView" : 3,
            "componentType" : 5123,
            "count" : 10410,
            "type" : "SCALAR"
        }
    ],
    "bufferViews" : [
        {
            "buffer" : 0,
            "byteLength" : 25956,
            "byteOffset" : 0
        },
        {
            "buffer" : 0,
            "byteLength" : 25956,
            "byteOffset" : 25956
        },
        {
            "buffer" : 0,
            "byteLength" : 17304,
            "byteOffset" : 51912
        },
        {
            "buffer" : 0,
            "byteLength" : 20820,
            "byteOffset" : 69216
        }
    ],
    "buffers" : [
        {
            "byteLength" : 90036,
            "uri" : "protetor_braco.bin"
        }
    ]
}
