{
    "asset" : {
        "generator" : "Khronos glTF Blender I/O v1.6.16",
        "version" : "2.0"
    },
    "scene" : 0,
    "scenes" : [
        {
            "name" : "Scene",
            "nodes" : [
                0
            ]
        }
    ],
    "nodes" : [
        {
            "mesh" : 0,
            "name" : "Mesh2",
            "rotation" : [
                0.7071068286895752,
                0,
                0,
                0.7071067094802856
            ],
            "scale" : [
                0.02539999969303608,
                0.02539999969303608,
                0.02539999969303608
            ],
            "translation" : [
                -0.0006371736526489258,
                0.7067382335662842,
                0.03846442699432373
            ]
        }
    ],
    "materials" : [
        {
            "doubleSided" : true,
            "name" : "Color_J02",
            "pbrMetallicRoughness" : {
                "baseColorFactor" : [
                    1,
                    1,
                    1,
                    0.050000011920928955
                ],
                "roughnessFactor" : 0
            }
        },
        {
            "doubleSided" : true,
            "name" : "Color_J07",
            "pbrMetallicRoughness" : {
                "baseColorFactor" : [
                    0.0470588244497776,
                    0.0470588244497776,
                    0.0470588244497776,
                    1
                ],
                "roughnessFactor" : 0.5527864098548889
            }
        }
    ],
    "meshes" : [
        {
            "name" : "Mesh.003",
            "primitives" : [
                {
                    "attributes" : {
                        "POSITION" : 0,
                        "NORMAL" : 1,
                        "TEXCOORD_0" : 2
                    },
                    "indices" : 3,
                    "material" : 0
                },
                {
                    "attributes" : {
                        "POSITION" : 4,
                        "NORMAL" : 5,
                        "TEXCOORD_0" : 6
                    },
                    "indices" : 7,
                    "material" : 1
                }
            ]
        }
    ],
    "accessors" : [
        {
            "bufferView" : 0,
            "componentType" : 5126,
            "count" : 831,
            "max" : [
                13.398857116699219,
                9.981958389282227,
                24.109634399414062
            ],
            "min" : [
                -13.569206237792969,
                -10.214347839355469,
                -5.090364933013916
            ],
            "type" : "VEC3"
        },
        {
            "bufferView" : 1,
            "componentType" : 5126,
            "count" : 831,
            "type" : "VEC3"
        },
        {
            "bufferView" : 2,
            "componentType" : 5126,
            "count" : 831,
            "type" : "VEC2"
        },
        {
            "bufferView" : 3,
            "componentType" : 5123,
            "count" : 876,
            "type" : "SCALAR"
        },
        {
            "bufferView" : 4,
            "componentType" : 5126,
            "count" : 2550,
            "max" : [
                14.215858459472656,
                10.031593322753906,
                -3.1903648376464844
            ],
            "min" : [
                -14.165672302246094,
                -13.060283660888672,
                -5.290364742279053
            ],
            "type" : "VEC3"
        },
        {
            "bufferView" : 5,
            "componentType" : 5126,
            "count" : 2550,
            "type" : "VEC3"
        },
        {
            "bufferView" : 6,
            "componentType" : 5126,
            "count" : 2550,
            "type" : "VEC2"
        },
        {
            "bufferView" : 7,
            "componentType" : 5123,
            "count" : 2841,
            "type" : "SCALAR"
        }
    ],
    "bufferViews" : [
        {
            "buffer" : 0,
            "byteLength" : 9972,
            "byteOffset" : 0
        },
        {
            "buffer" : 0,
            "byteLength" : 9972,
            "byteOffset" : 9972
        },
        {
            "buffer" : 0,
            "byteLength" : 6648,
            "byteOffset" : 19944
        },
        {
            "buffer" : 0,
            "byteLength" : 1752,
            "byteOffset" : 26592
        },
        {
            "buffer" : 0,
            "byteLength" : 30600,
            "byteOffset" : 28344
        },
        {
            "buffer" : 0,
            "byteLength" : 30600,
            "byteOffset" : 58944
        },
        {
            "buffer" : 0,
            "byteLength" : 20400,
            "byteOffset" : 89544
        },
        {
            "buffer" : 0,
            "byteLength" : 5682,
            "byteOffset" : 109944
        }
    ],
    "buffers" : [
        {
            "byteLength" : 115628,
            "uri" : "protetor_facial.bin"
        }
    ]
}
