{
    "asset" : {
        "generator" : "Khronos glTF Blender I/O v1.6.16",
        "version" : "2.0"
    },
    "scene" : 0,
    "scenes" : [
        {
            "name" : "Scene",
            "nodes" : [
                0
            ]
        }
    ],
    "nodes" : [
        {
            "mesh" : 0,
            "name" : "ear 1",
            "rotation" : [
                -0.06000658869743347,
                0.7045560479164124,
                -0.7045561075210571,
                -0.06000661849975586
            ],
            "scale" : [
                0.053291890770196915,
                0.053291890770196915,
                0.053291890770196915
            ],
            "translation" : [
                -0.001208319328725338,
                0.04481043294072151,
                0.017498746514320374
            ]
        }
    ],
    "materials" : [
        {
            "doubleSided" : true,
            "name" : "01 - Default",
            "pbrMetallicRoughness" : {
                "baseColorFactor" : [
                    0.8235294222831726,
                    0.3686274588108063,
                    0,
                    1
                ],
                "roughnessFactor" : 0.5075422525405884
            }
        },
        {
            "doubleSided" : true,
            "name" : "02 - Default",
            "pbrMetallicRoughness" : {
                "baseColorFactor" : [
                    0.4588235318660736,
                    0.07450980693101883,
                    0,
                    1
                ],
                "roughnessFactor" : 0.858578622341156
            }
        }
    ],
    "meshes" : [
        {
            "name" : "Mesh.018",
            "primitives" : [
                {
                    "attributes" : {
                        "POSITION" : 0,
                        "NORMAL" : 1,
                        "TEXCOORD_0" : 2
                    },
                    "indices" : 3,
                    "material" : 0
                },
                {
                    "attributes" : {
                        "POSITION" : 4,
                        "NORMAL" : 5,
                        "TEXCOORD_0" : 6
                    },
                    "indices" : 7,
                    "material" : 1
                }
            ]
        }
    ],
    "accessors" : [
        {
            "bufferView" : 0,
            "componentType" : 5126,
            "count" : 5466,
            "max" : [
                1.1233376264572144,
                -1.0697402954101562,
                0.24765735864639282
            ],
            "min" : [
                -0.7142885327339172,
                -2.308624267578125,
                -0.2482127845287323
            ],
            "type" : "VEC3"
        },
        {
            "bufferView" : 1,
            "componentType" : 5126,
            "count" : 5466,
            "type" : "VEC3"
        },
        {
            "bufferView" : 2,
            "componentType" : 5126,
            "count" : 5466,
            "type" : "VEC2"
        },
        {
            "bufferView" : 3,
            "componentType" : 5123,
            "count" : 5508,
            "type" : "SCALAR"
        },
        {
            "bufferView" : 4,
            "componentType" : 5126,
            "count" : 11910,
            "max" : [
                1.6830328702926636,
                3.174858570098877,
                0.05165562033653259
            ],
            "min" : [
                -1.9371592998504639,
                -1.1606546640396118,
                -0.05224649980664253
            ],
            "type" : "VEC3"
        },
        {
            "bufferView" : 5,
            "componentType" : 5126,
            "count" : 11910,
            "type" : "VEC3"
        },
        {
            "bufferView" : 6,
            "componentType" : 5126,
            "count" : 11910,
            "type" : "VEC2"
        },
        {
            "bufferView" : 7,
            "componentType" : 5123,
            "count" : 11910,
            "type" : "SCALAR"
        }
    ],
    "bufferViews" : [
        {
            "buffer" : 0,
            "byteLength" : 65592,
            "byteOffset" : 0
        },
        {
            "buffer" : 0,
            "byteLength" : 65592,
            "byteOffset" : 65592
        },
        {
            "buffer" : 0,
            "byteLength" : 43728,
            "byteOffset" : 131184
        },
        {
            "buffer" : 0,
            "byteLength" : 11016,
            "byteOffset" : 174912
        },
        {
            "buffer" : 0,
            "byteLength" : 142920,
            "byteOffset" : 185928
        },
        {
            "buffer" : 0,
            "byteLength" : 142920,
            "byteOffset" : 328848
        },
        {
            "buffer" : 0,
            "byteLength" : 95280,
            "byteOffset" : 471768
        },
        {
            "buffer" : 0,
            "byteLength" : 23820,
            "byteOffset" : 567048
        }
    ],
    "buffers" : [
        {
            "byteLength" : 590868,
            "uri" : "protetor_ouvido.bin"
        }
    ]
}
