{
  "accessors": [
    {
      "bufferView": 2,
      "componentType": 5126,
      "count": 139,
      "max": [
        1,
        0.091773800551891327,
        0.11697500199079514
      ],
      "min": [
        -0.50637698173522949,
        -0.67487102746963501,
        -0.63431000709533691
      ],
      "type": "VEC3"
    },
    {
      "bufferView": 2,
      "byteOffset": 1668,
      "componentType": 5126,
      "count": 139,
      "max": [
        0.9472651481628418,
        0.43668529391288757,
        0.16350233554840088
      ],
      "min": [
        -0.55109381675720215,
        -0.11199698597192764,
        -0.99336940050125122
      ],
      "type": "VEC3"
    },
    {
      "bufferView": 3,
      "componentType": 5126,
      "count": 139,
      "max": [
        0.012479100376367569,
        0.39836201071739197,
        0.54161298274993896,
        1
      ],
      "min": [
        -0.98821598291397095,
        0.11945699900388718,
        -0.93136298656463623,
        1
      ],
      "type": "VEC4"
    },
    {
      "bufferView": 1,
      "componentType": 5126,
      "count": 139,
      "max": [
        0.52956199645996094,
        0.31048598885536194
      ],
      "min": [
        0.0044316798448562622,
        0.11168199777603149
      ],
      "type": "VEC2"
    },
    {
      "bufferView": 0,
      "componentType": 5125,
      "count": 492,
      "max": [
        138
      ],
      "min": [
        0
      ],
      "type": "SCALAR"
    },
    {
      "bufferView": 2,
      "byteOffset": 3336,
      "componentType": 5126,
      "count": 1805,
      "max": [
        0.96727699041366577,
        0.67487102746963501,
        0.75622302293777466
      ],
      "min": [
        -1,
        -0.65482801198959351,
        -0.75622302293777466
      ],
      "type": "VEC3"
    },
    {
      "bufferView": 2,
      "byteOffset": 24996,
      "componentType": 5126,
      "count": 1805,
      "max": [
        0.98721379041671753,
        0.99863129854202271,
        0.99795496463775635
      ],
      "min": [
        -0.99926638603210449,
        -0.99531352519989014,
        -0.99795496463775635
      ],
      "type": "VEC3"
    },
    {
      "bufferView": 3,
      "byteOffset": 2224,
      "componentType": 5126,
      "count": 1805,
      "max": [
        0.99250400066375732,
        0.99958401918411255,
        0.99994397163391113,
        1
      ],
      "min": [
        -0.99984699487686157,
        -0.98720598220825195,
        -0.99992597103118896,
        1
      ],
      "type": "VEC4"
    },
    {
      "bufferView": 1,
      "byteOffset": 1112,
      "componentType": 5126,
      "count": 1805,
      "max": [
        0.99279797077178955,
        0.99352097511291504
      ],
      "min": [
        0.0051707797683775425,
        0.11433299630880356
      ],
      "type": "VEC2"
    },
    {
      "bufferView": 0,
      "byteOffset": 1968,
      "componentType": 5125,
      "count": 10002,
      "max": [
        1804
      ],
      "min": [
        0
      ],
      "type": "SCALAR"
    },
    {
      "bufferView": 2,
      "byteOffset": 46656,
      "componentType": 5126,
      "count": 143,
      "max": [
        0.97553300857543945,
        0.091773800551891327,
        0.63431000709533691
      ],
      "min": [
        -0.50637698173522949,
        -0.61470597982406616,
        -0.201882004737854
      ],
      "type": "VEC3"
    },
    {
      "bufferView": 2,
      "byteOffset": 48372,
      "componentType": 5126,
      "count": 143,
      "max": [
        0.91510969400405884,
        0.43458765745162964,
        0.99336940050125122
      ],
      "min": [
        -0.55109381675720215,
        -0.11199698597192764,
        -0.41699931025505066
      ],
      "type": "VEC3"
    },
    {
      "bufferView": 3,
      "byteOffset": 31104,
      "componentType": 5126,
      "count": 143,
      "max": [
        0.44987499713897705,
        -0.018128599971532822,
        0.97950899600982666,
        1
      ],
      "min": [
        -0.90604197978973389,
        -0.45444598793983459,
        -0.51549100875854492,
        1
      ],
      "type": "VEC4"
    },
    {
      "bufferView": 1,
      "byteOffset": 15552,
      "componentType": 5126,
      "count": 143,
      "max": [
        0.69217300415039062,
        0.46270900964736938
      ],
      "min": [
        0.20889699459075928,
        0.16530700027942657
      ],
      "type": "VEC2"
    },
    {
      "bufferView": 0,
      "byteOffset": 41976,
      "componentType": 5125,
      "count": 507,
      "max": [
        142
      ],
      "min": [
        0
      ],
      "type": "SCALAR"
    },
    {
      "bufferView": 2,
      "byteOffset": 50088,
      "componentType": 5126,
      "count": 30,
      "max": [
        0.71081602573394775,
        0.4950299859046936,
        0.48993098735809326
      ],
      "min": [
        -0.49605900049209595,
        -0.29045400023460388,
        -0.43873599171638489
      ],
      "type": "VEC3"
    },
    {
      "bufferView": 2,
      "byteOffset": 50448,
      "componentType": 5126,
      "count": 30,
      "max": [
        0.78325927257537842,
        -0.098300471901893616,
        0.57009422779083252
      ],
      "min": [
        -0.6653139591217041,
        -0.98794007301330566,
        -0.65420311689376831
      ],
      "type": "VEC3"
    },
    {
      "bufferView": 3,
      "byteOffset": 33392,
      "componentType": 5126,
      "count": 30,
      "max": [
        0.81983697414398193,
        0.99421900510787964,
        -0.097260400652885437,
        1
      ],
      "min": [
        0.045478101819753647,
        -0.87334102392196655,
        -0.57290101051330566,
        1
      ],
      "type": "VEC4"
    },
    {
      "bufferView": 1,
      "byteOffset": 16696,
      "componentType": 5126,
      "count": 30,
      "max": [
        0.93258798122406006,
        0.10482600331306458
      ],
      "min": [
        0.41078600287437439,
        0.058085300028324127
      ],
      "type": "VEC2"
    },
    {
      "bufferView": 0,
      "byteOffset": 44004,
      "componentType": 5125,
      "count": 84,
      "max": [
        29
      ],
      "min": [
        0
      ],
      "type": "SCALAR"
    },
    {
      "bufferView": 2,
      "byteOffset": 50808,
      "componentType": 5126,
      "count": 640,
      "max": [
        0.35474801063537598,
        0.11381199955940247,
        0.65268898010253906
      ],
      "min": [
        -0.10188300162553787,
        -0.31667399406433105,
        -0.65268898010253906
      ],
      "type": "VEC3"
    },
    {
      "bufferView": 2,
      "byteOffset": 58488,
      "componentType": 5126,
      "count": 640,
      "max": [
        1,
        0.98481571674346924,
        0.98481583595275879
      ],
      "min": [
        -1,
        -0.98481571674346924,
        -0.98481583595275879
      ],
      "type": "VEC3"
    },
    {
      "bufferView": 3,
      "byteOffset": 33872,
      "componentType": 5126,
      "count": 640,
      "max": [
        0.99999898672103882,
        0.58887499570846558,
        0.99982398748397827,
        1
      ],
      "min": [
        -1,
        -0.59234797954559326,
        -0.99984097480773926,
        1
      ],
      "type": "VEC4"
    },
    {
      "bufferView": 1,
      "byteOffset": 16936,
      "componentType": 5126,
      "count": 640,
      "max": [
        0.57990998029708862,
        0.92592000961303711
      ],
      "min": [
        0.0034362899605184793,
        0.27420100569725037
      ],
      "type": "VEC2"
    },
    {
      "bufferView": 0,
      "byteOffset": 44340,
      "componentType": 5125,
      "count": 1776,
      "max": [
        639
      ],
      "min": [
        0
      ],
      "type": "SCALAR"
    },
    {
      "bufferView": 2,
      "byteOffset": 66168,
      "componentType": 5126,
      "count": 44,
      "max": [
        -0.0062265000306069851,
        -0.16143199801445007,
        0.6332169771194458
      ],
      "min": [
        -0.58450299501419067,
        -0.46636700630187988,
        -0.63489800691604614
      ],
      "type": "VEC3"
    },
    {
      "bufferView": 2,
      "byteOffset": 66696,
      "componentType": 5126,
      "count": 44,
      "max": [
        -0.11250016093254089,
        0.17939607799053192,
        0.97939777374267578
      ],
      "min": [
        -0.9825284481048584,
        0.1389981210231781,
        -0.97900134325027466
      ],
      "type": "VEC3"
    },
    {
      "bufferView": 3,
      "byteOffset": 44112,
      "componentType": 5126,
      "count": 44,
      "max": [
        0.97469097375869751,
        0.17068399488925934,
        -0.14198899269104004,
        1
      ],
      "min": [
        -0.972648024559021,
        -0.17267300188541412,
        -0.99767798185348511,
        1
      ],
      "type": "VEC4"
    },
    {
      "bufferView": 1,
      "byteOffset": 22056,
      "componentType": 5126,
      "count": 44,
      "max": [
        0.97192198038101196,
        0.051220301538705826
      ],
      "min": [
        0.56625300645828247,
        0.0032808200921863317
      ],
      "type": "VEC2"
    },
    {
      "bufferView": 0,
      "byteOffset": 51444,
      "componentType": 5125,
      "count": 126,
      "max": [
        43
      ],
      "min": [
        0
      ],
      "type": "SCALAR"
    },
    {
      "bufferView": 2,
      "byteOffset": 67224,
      "componentType": 5126,
      "count": 30,
      "max": [
        0.71540999412536621,
        0.45542201399803162,
        0.44571399688720703
      ],
      "min": [
        -0.5095369815826416,
        -0.29078799486160278,
        -0.46390798687934875
      ],
      "type": "VEC3"
    },
    {
      "bufferView": 2,
      "byteOffset": 67584,
      "componentType": 5126,
      "count": 30,
      "max": [
        0.79762554168701172,
        -0.073197416961193085,
        0.66137665510177612
      ],
      "min": [
        -0.64440977573394775,
        -0.98847782611846924,
        -0.56678134202957153
      ],
      "type": "VEC3"
    },
    {
      "bufferView": 3,
      "byteOffset": 44816,
      "componentType": 5126,
      "count": 30,
      "max": [
        -0.074814297258853912,
        0.85550999641418457,
        -0.025886600837111473,
        1
      ],
      "min": [
        -0.81847101449966431,
        -0.99686098098754883,
        -0.57452398538589478,
        1
      ],
      "type": "VEC4"
    },
    {
      "bufferView": 1,
      "byteOffset": 22408,
      "componentType": 5126,
      "count": 30,
      "max": [
        0.55695497989654541,
        0.050460200756788254
      ],
      "min": [
        0.0059670098125934601,
        0.0027979800943285227
      ],
      "type": "VEC2"
    },
    {
      "bufferView": 0,
      "byteOffset": 51948,
      "componentType": 5125,
      "count": 84,
      "max": [
        29
      ],
      "min": [
        0
      ],
      "type": "SCALAR"
    },
    {
      "bufferView": 2,
      "byteOffset": 67944,
      "componentType": 5126,
      "count": 18,
      "max": [
        0.21182399988174438,
        0.39713600277900696,
        0.59127002954483032
      ],
      "min": [
        0.041109099984169006,
        0.025344999507069588,
        -0.59295397996902466
      ],
      "type": "VEC3"
    },
    {
      "bufferView": 2,
      "byteOffset": 68160,
      "componentType": 5126,
      "count": 18,
      "max": [
        -0,
        -0.55599182844161987,
        0.83118784427642822
      ],
      "min": [
        -0,
        -1,
        -0.83118784427642822
      ],
      "type": "VEC3"
    },
    {
      "bufferView": 3,
      "byteOffset": 45296,
      "componentType": 5126,
      "count": 18,
      "max": [
        0.00084251398220658302,
        0.83118700981140137,
        -0.5559920072555542,
        1
      ],
      "min": [
        0.00079596397699788213,
        -0.83118802309036255,
        -1,
        1
      ],
      "type": "VEC4"
    },
    {
      "bufferView": 1,
      "byteOffset": 22648,
      "componentType": 5126,
      "count": 18,
      "max": [
        0.40599799156188965,
        0.10459399968385696
      ],
      "min": [
        0.0079318098723888397,
        0.058037601411342621
      ],
      "type": "VEC2"
    },
    {
      "bufferView": 0,
      "byteOffset": 52284,
      "componentType": 5125,
      "count": 48,
      "max": [
        17
      ],
      "min": [
        0
      ],
      "type": "SCALAR"
    },
    {
      "bufferView": 2,
      "byteOffset": 68376,
      "componentType": 5126,
      "count": 176,
      "max": [
        0.28064599633216858,
        -0.18604500591754913,
        0.66367298364639282
      ],
      "min": [
        -0.027781000360846519,
        -0.31480398774147034,
        -0.66367602348327637
      ],
      "type": "VEC3"
    },
    {
      "bufferView": 2,
      "byteOffset": 70488,
      "componentType": 5126,
      "count": 176,
      "max": [
        1,
        0.9799078106880188,
        0.98481583595275879
      ],
      "min": [
        -1,
        -0.9799078106880188,
        -0.98481583595275879
      ],
      "type": "VEC3"
    },
    {
      "bufferView": 3,
      "byteOffset": 45584,
      "componentType": 5126,
      "count": 176,
      "max": [
        0.99998301267623901,
        0.57783997058868408,
        0.99758702516555786,
        1
      ],
      "min": [
        0,
        -0.57284802198410034,
        -0.99787801504135132,
        1
      ],
      "type": "VEC4"
    },
    {
      "bufferView": 1,
      "byteOffset": 22792,
      "componentType": 5126,
      "count": 176,
      "max": [
        0.62582498788833618,
        0.99014097452163696
      ],
      "min": [
        0.3920229971408844,
        0.93042999505996704
      ],
      "type": "VEC2"
    },
    {
      "bufferView": 0,
      "byteOffset": 52476,
      "componentType": 5125,
      "count": 504,
      "max": [
        175
      ],
      "min": [
        0
      ],
      "type": "SCALAR"
    }
  ],
  "asset": {
    "extras": {
      "author": "ant_jura (https://sketchfab.com/ant_jura)",
      "license": "CC-BY-4.0 (http://creativecommons.org/licenses/by/4.0/)",
      "source": "https://sketchfab.com/3d-models/safety-helmet-17725e7ba38d4e4fadde777f4a9ba930",
      "title": "Safety Helmet"
    },
    "generator": "Sketchfab-4.97.1",
    "version": "2.0"
  },
  "bufferViews": [
    {
      "buffer": 0,
      "byteLength": 54492,
      "byteOffset": 0,
      "name": "floatBufferViews",
      "target": 34963
    },
    {
      "buffer": 0,
      "byteLength": 24200,
      "byteOffset": 54492,
      "byteStride": 8,
      "name": "floatBufferViews",
      "target": 34962
    },
    {
      "buffer": 0,
      "byteLength": 72600,
      "byteOffset": 78692,
      "byteStride": 12,
      "name": "floatBufferViews",
      "target": 34962
    },
    {
      "buffer": 0,
      "byteLength": 48400,
      "byteOffset": 151292,
      "byteStride": 16,
      "name": "floatBufferViews",
      "target": 34962
    }
  ],
  "buffers": [
    {
      "byteLength": 199692,
      "uri": "safety_helmet.bin"
    }
  ],
  "images": [
    {
      "uri": "textures/DefaultMaterial_baseColor.png"
    },
    {
      "uri": "textures/DefaultMaterial_metallicRoughness.png"
    },
    {
      "uri": "textures/DefaultMaterial_normal.jpeg"
    }
  ],
  "materials": [
    {
      "alphaMode": "BLEND",
      "doubleSided": true,
      "emissiveFactor": [
        0,
        0,
        0
      ],
      "name": "DefaultMaterial",
      "normalTexture": {
        "index": 2,
        "scale": 1,
        "texCoord": 0
      },
      "occlusionTexture": {
        "index": 1,
        "strength": 1,
        "texCoord": 0
      },
      "pbrMetallicRoughness": {
        "baseColorFactor": [
          1,
          1,
          1,
          1
        ],
        "baseColorTexture": {
          "index": 1,
          "texCoord": 0
        },
        "metallicFactor": 1,
        "metallicRoughnessTexture": {
          "index": 1,
          "texCoord": 0
        },
        "roughnessFactor": 1
      }
    }
  ],
  "meshes": [
    {
      "name": "defaultMaterial",
      "primitives": [
        {
          "attributes": {
            "NORMAL": 1,
            "POSITION": 0,
            "TANGENT": 2,
            "TEXCOORD_0": 3
          },
          "indices": 4,
          "material": 0,
          "mode": 4
        }
      ]
    },
    {
      "name": "defaultMaterial",
      "primitives": [
        {
          "attributes": {
            "NORMAL": 6,
            "POSITION": 5,
            "TANGENT": 7,
            "TEXCOORD_0": 8
          },
          "indices": 9,
          "material": 0,
          "mode": 4
        }
      ]
    },
    {
      "name": "defaultMaterial",
      "primitives": [
        {
          "attributes": {
            "NORMAL": 11,
            "POSITION": 10,
            "TANGENT": 12,
            "TEXCOORD_0": 13
          },
          "indices": 14,
          "material": 0,
          "mode": 4
        }
      ]
    },
    {
      "name": "defaultMaterial",
      "primitives": [
        {
          "attributes": {
            "NORMAL": 16,
            "POSITION": 15,
            "TANGENT": 17,
            "TEXCOORD_0": 18
          },
          "indices": 19,
          "material": 0,
          "mode": 4
        }
      ]
    },
    {
      "name": "defaultMaterial",
      "primitives": [
        {
          "attributes": {
            "NORMAL": 21,
            "POSITION": 20,
            "TANGENT": 22,
            "TEXCOORD_0": 23
          },
          "indices": 24,
          "material": 0,
          "mode": 4
        }
      ]
    },
    {
      "name": "defaultMaterial",
      "primitives": [
        {
          "attributes": {
            "NORMAL": 26,
            "POSITION": 25,
            "TANGENT": 27,
            "TEXCOORD_0": 28
          },
          "indices": 29,
          "material": 0,
          "mode": 4
        }
      ]
    },
    {
      "name": "defaultMaterial",
      "primitives": [
        {
          "attributes": {
            "NORMAL": 31,
            "POSITION": 30,
            "TANGENT": 32,
            "TEXCOORD_0": 33
          },
          "indices": 34,
          "material": 0,
          "mode": 4
        }
      ]
    },
    {
      "name": "defaultMaterial",
      "primitives": [
        {
          "attributes": {
            "NORMAL": 36,
            "POSITION": 35,
            "TANGENT": 37,
            "TEXCOORD_0": 38
          },
          "indices": 39,
          "material": 0,
          "mode": 4
        }
      ]
    },
    {
      "name": "defaultMaterial",
      "primitives": [
        {
          "attributes": {
            "NORMAL": 41,
            "POSITION": 40,
            "TANGENT": 42,
            "TEXCOORD_0": 43
          },
          "indices": 44,
          "material": 0,
          "mode": 4
        }
      ]
    }
  ],
  "nodes": [
    {
      "children": [
        1
      ],
      "name": "RootNode (gltf orientation matrix)",
      "rotation": [
        -0.70710678118654746,
        -0,
        -0,
        0.70710678118654757
      ]
    },
    {
      "children": [
        2
      ],
      "name": "RootNode (model correction matrix)"
    },
    {
      "children": [
        3,
        5,
        7,
        9,
        11,
        13,
        15,
        17,
        19
      ],
      "matrix": [
        1,
        0,
        0,
        0,
        0,
        -4.3711390063094768e-08,
        0.999999999999999,
        0,
        0,
        -0.999999999999999,
        -4.3711390063094768e-08,
        0,
        0,
        0,
        0,
        1
      ],
      "name": "Collada visual scene group"
    },
    {
      "children": [
        4
      ],
      "name": "g"
    },
    {
      "mesh": 0,
      "name": "defaultMaterial"
    },
    {
      "children": [
        6
      ],
      "name": "g"
    },
    {
      "mesh": 1,
      "name": "defaultMaterial"
    },
    {
      "children": [
        8
      ],
      "name": "g"
    },
    {
      "mesh": 2,
      "name": "defaultMaterial"
    },
    {
      "children": [
        10
      ],
      "name": "g"
    },
    {
      "mesh": 3,
      "name": "defaultMaterial"
    },
    {
      "children": [
        12
      ],
      "name": "g"
    },
    {
      "mesh": 4,
      "name": "defaultMaterial"
    },
    {
      "children": [
        14
      ],
      "name": "g"
    },
    {
      "mesh": 5,
      "name": "defaultMaterial"
    },
    {
      "children": [
        16
      ],
      "name": "g"
    },
    {
      "mesh": 6,
      "name": "defaultMaterial"
    },
    {
      "children": [
        18
      ],
      "name": "g"
    },
    {
      "mesh": 7,
      "name": "defaultMaterial"
    },
    {
      "children": [
        20
      ],
      "name": "g"
    },
    {
      "mesh": 8,
      "name": "defaultMaterial"
    }
  ],
  "samplers": [
    {
      "magFilter": 9729,
      "minFilter": 9987,
      "wrapS": 10497,
      "wrapT": 10497
    }
  ],
  "scene": 0,
  "scenes": [
    {
      "name": "OSG_Scene",
      "nodes": [
        0
      ]
    }
  ],
  "textures": [
    {
      "sampler": 0,
      "source": 0
    },
    {
      "sampler": 0,
      "source": 1
    },
    {
      "sampler": 0,
      "source": 2
    }
  ]
}

