{
    "asset" : {
        "generator" : "Khronos glTF Blender I/O v1.6.16",
        "version" : "2.0"
    },
    "scene" : 0,
    "scenes" : [
        {
            "name" : "Scene",
            "nodes" : [
                0
            ]
        }
    ],
    "nodes" : [
        {
            "mesh" : 0,
            "name" : "sola",
            "scale" : [
                0.02539999969303608,
                0.02539999969303608,
                0.02539999969303608
            ],
            "translation" : [
                -0.004786311183124781,
                0.010223680175840855,
                0
            ]
        }
    ],
    "materials" : [
        {
            "doubleSided" : true,
            "name" : "08 - Default.001",
            "pbrMetallicRoughness" : {
                "baseColorFactor" : [
                    0.027450980618596077,
                    0.027450980618596077,
                    0.027450980618596077,
                    1
                ],
                "roughnessFactor" : 0.858578622341156
            }
        },
        {
            "doubleSided" : true,
            "name" : "07 - Default",
            "pbrMetallicRoughness" : {
                "baseColorFactor" : [
                    0.06666667014360428,
                    0.06666667014360428,
                    0.06666667014360428,
                    1
                ],
                "roughnessFactor" : 0.858578622341156
            }
        }
    ],
    "meshes" : [
        {
            "name" : "Mesh.005",
            "primitives" : [
                {
                    "attributes" : {
                        "POSITION" : 0,
                        "NORMAL" : 1,
                        "TEXCOORD_0" : 2
                    },
                    "indices" : 3,
                    "material" : 0
                },
                {
                    "attributes" : {
                        "POSITION" : 4,
                        "NORMAL" : 5,
                        "TEXCOORD_0" : 6
                    },
                    "indices" : 7,
                    "material" : 1
                }
            ]
        }
    ],
    "accessors" : [
        {
            "bufferView" : 0,
            "componentType" : 5126,
            "count" : 150737,
            "max" : [
                2.216487407684326,
                0.1797138750553131,
                1.9048409461975098
            ],
            "min" : [
                -1.839612603187561,
                -0.27928611636161804,
                -1.904841661453247
            ],
            "type" : "VEC3"
        },
        {
            "bufferView" : 1,
            "componentType" : 5126,
            "count" : 150737,
            "type" : "VEC3"
        },
        {
            "bufferView" : 2,
            "componentType" : 5126,
            "count" : 150737,
            "type" : "VEC2"
        },
        {
            "bufferView" : 3,
            "componentType" : 5125,
            "count" : 153396,
            "type" : "SCALAR"
        },
        {
            "bufferView" : 4,
            "componentType" : 5126,
            "count" : 71108,
            "max" : [
                2.152987480163574,
                1.3001623153686523,
                1.8402409553527832
            ],
            "min" : [
                -1.787712574005127,
                -0.23458614945411682,
                -1.8402416706085205
            ],
            "type" : "VEC3"
        },
        {
            "bufferView" : 5,
            "componentType" : 5126,
            "count" : 71108,
            "type" : "VEC3"
        },
        {
            "bufferView" : 6,
            "componentType" : 5126,
            "count" : 71108,
            "type" : "VEC2"
        },
        {
            "bufferView" : 7,
            "componentType" : 5125,
            "count" : 71136,
            "type" : "SCALAR"
        }
    ],
    "bufferViews" : [
        {
            "buffer" : 0,
            "byteLength" : 1808844,
            "byteOffset" : 0
        },
        {
            "buffer" : 0,
            "byteLength" : 1808844,
            "byteOffset" : 1808844
        },
        {
            "buffer" : 0,
            "byteLength" : 1205896,
            "byteOffset" : 3617688
        },
        {
            "buffer" : 0,
            "byteLength" : 613584,
            "byteOffset" : 4823584
        },
        {
            "buffer" : 0,
            "byteLength" : 853296,
            "byteOffset" : 5437168
        },
        {
            "buffer" : 0,
            "byteLength" : 853296,
            "byteOffset" : 6290464
        },
        {
            "buffer" : 0,
            "byteLength" : 568864,
            "byteOffset" : 7143760
        },
        {
            "buffer" : 0,
            "byteLength" : 284544,
            "byteOffset" : 7712624
        }
    ],
    "buffers" : [
        {
            "byteLength" : 7997168,
            "uri" : "sapato.bin"
        }
    ]
}
