{
    "asset" : {
        "generator" : "Khronos glTF Blender I/O v1.6.16",
        "version" : "2.0"
    },
    "scene" : 0,
    "scenes" : [
        {
            "name" : "Scene",
            "nodes" : [
                0
            ]
        }
    ],
    "nodes" : [
        {
            "mesh" : 0,
            "name" : "sola",
            "rotation" : [
                -0.28277692198753357,
                -0.6481027603149414,
                0.28277695178985596,
                0.6481028199195862
            ],
            "scale" : [
                0.07332027703523636,
                0.07332027703523636,
                0.07332027703523636
            ],
            "translation" : [
                0.05590240657329559,
                0.1381247490644455,
                0.032530270516872406
            ]
        }
    ],
    "materials" : [
        {
            "doubleSided" : true,
            "name" : "08 - Default",
            "pbrMetallicRoughness" : {
                "baseColorFactor" : [
                    0.020378563553094864,
                    0.020378563553094864,
                    0.020378563553094864,
                    1
                ],
                "roughnessFactor" : 0.858578622341156
            }
        },
        {
            "doubleSided" : true,
            "name" : "07 - Default",
            "pbrMetallicRoughness" : {
                "baseColorFactor" : [
                    0.10247280448675156,
                    0.10247280448675156,
                    0.10247280448675156,
                    1
                ],
                "roughnessFactor" : 0.858578622341156
            }
        }
    ],
    "meshes" : [
        {
            "name" : "Mesh.003",
            "primitives" : [
                {
                    "attributes" : {
                        "POSITION" : 0,
                        "NORMAL" : 1
                    },
                    "indices" : 2,
                    "material" : 0
                },
                {
                    "attributes" : {
                        "POSITION" : 3,
                        "NORMAL" : 4
                    },
                    "indices" : 5,
                    "material" : 1
                }
            ]
        }
    ],
    "accessors" : [
        {
            "bufferView" : 0,
            "componentType" : 5126,
            "count" : 55348,
            "max" : [
                2.3071846961975098,
                0.945827305316925,
                3.6427464485168457
            ],
            "min" : [
                -1.4157795906066895,
                -0.19746588170528412,
                -1.134322166442871
            ],
            "type" : "VEC3"
        },
        {
            "bufferView" : 1,
            "componentType" : 5126,
            "count" : 55348,
            "type" : "VEC3"
        },
        {
            "bufferView" : 2,
            "componentType" : 5123,
            "count" : 55350,
            "type" : "SCALAR"
        },
        {
            "bufferView" : 3,
            "componentType" : 5126,
            "count" : 33603,
            "max" : [
                2.2214088439941406,
                1.7746487855911255,
                3.438889503479004
            ],
            "min" : [
                -1.4335381984710693,
                -0.03320343792438507,
                -1.1229417324066162
            ],
            "type" : "VEC3"
        },
        {
            "bufferView" : 4,
            "componentType" : 5126,
            "count" : 33603,
            "type" : "VEC3"
        },
        {
            "bufferView" : 5,
            "componentType" : 5123,
            "count" : 33603,
            "type" : "SCALAR"
        }
    ],
    "bufferViews" : [
        {
            "buffer" : 0,
            "byteLength" : 664176,
            "byteOffset" : 0
        },
        {
            "buffer" : 0,
            "byteLength" : 664176,
            "byteOffset" : 664176
        },
        {
            "buffer" : 0,
            "byteLength" : 110700,
            "byteOffset" : 1328352
        },
        {
            "buffer" : 0,
            "byteLength" : 403236,
            "byteOffset" : 1439052
        },
        {
            "buffer" : 0,
            "byteLength" : 403236,
            "byteOffset" : 1842288
        },
        {
            "buffer" : 0,
            "byteLength" : 67206,
            "byteOffset" : 2245524
        }
    ],
    "buffers" : [
        {
            "byteLength" : 2312732,
            "uri" : "sapato.bin"
        }
    ]
}
